<svg width="24" height="24" viewBox="0 0 24 24" fill="none" xmlns="http://www.w3.org/2000/svg">
<path d="M12 4.5C13.5307 4.50027 15.0247 4.96888 16.2813 5.84292C17.5379 6.71696 18.497 7.95457 19.0297 9.38955C19.5625 10.8245 19.6435 12.3882 19.2617 13.8705C18.88 15.3528 18.0538 16.6829 16.8941 17.682C15.7345 18.6811 14.2969 19.3015 12.7744 19.4598C11.2519 19.6181 9.71745 19.3068 8.37705 18.5676C7.03665 17.8285 5.9545 16.6969 5.27593 15.3248C4.59737 13.9527 4.35487 12.4059 4.581 10.892C4.648 10.438 4.316 10 3.857 10C3.67786 9.99673 3.50348 10.0578 3.36551 10.1721C3.22754 10.2864 3.13511 10.4464 3.105 10.623C2.78034 12.718 3.20569 14.8604 4.30605 16.6725C5.40642 18.4846 7.11117 19.8501 9.1198 20.5283C11.1284 21.2065 13.312 21.1538 15.2856 20.3796C17.2592 19.6054 18.8962 18.1593 19.9079 16.2962C20.9196 14.4332 21.2412 12.2728 20.8159 10.1958C20.3906 8.11891 19.2458 6.25876 17.5832 4.9433C15.9207 3.62784 13.8471 2.94152 11.728 3.00531C9.60896 3.06911 7.58042 3.87892 6 5.292V4.25C6 4.05109 5.92098 3.86032 5.78033 3.71967C5.63968 3.57902 5.44891 3.5 5.25 3.5C5.05109 3.5 4.86032 3.57902 4.71967 3.71967C4.57902 3.86032 4.5 4.05109 4.5 4.25V7.25C4.5 7.664 4.836 8 5.25 8H8.25C8.44891 8 8.63968 7.92098 8.78033 7.78033C8.92098 7.63968 9 7.44891 9 7.25C9 7.05109 8.92098 6.86032 8.78033 6.71967C8.63968 6.57902 8.44891 6.5 8.25 6.5H6.9C8.28555 5.21181 10.1081 4.49707 12 4.5V4.5Z" fill="#2584CE"/>
</svg>
