<svg width="24" height="24" viewBox="0 0 24 24" fill="none" xmlns="http://www.w3.org/2000/svg">
<path d="M23.75 20.75H2.25V1.25C2.25 1.1125 2.1375 1 2 1H0.25C0.1125 1 0 1.1125 0 1.25V22.75C0 22.8875 0.1125 23 0.25 23H23.75C23.8875 23 24 22.8875 24 22.75V21C24 20.8625 23.8875 20.75 23.75 20.75ZM5 18.25H6.75C6.8875 18.25 7 18.1375 7 18V13.5C7 13.3625 6.8875 13.25 6.75 13.25H5C4.8625 13.25 4.75 13.3625 4.75 13.5V18C4.75 18.1375 4.8625 18.25 5 18.25ZM9.75 18.25H11.5C11.6375 18.25 11.75 18.1375 11.75 18V8C11.75 7.8625 11.6375 7.75 11.5 7.75H9.75C9.6125 7.75 9.5 7.8625 9.5 8V18C9.5 18.1375 9.6125 18.25 9.75 18.25ZM14.5 18.25H16.25C16.3875 18.25 16.5 18.1375 16.5 18V10.4375C16.5 10.3 16.3875 10.1875 16.25 10.1875H14.5C14.3625 10.1875 14.25 10.3 14.25 10.4375V18C14.25 18.1375 14.3625 18.25 14.5 18.25ZM19.25 18.25H21C21.1375 18.25 21.25 18.1375 21.25 18V5.5C21.25 5.3625 21.1375 5.25 21 5.25H19.25C19.1125 5.25 19 5.3625 19 5.5V18C19 18.1375 19.1125 18.25 19.25 18.25Z" fill="white"/>
</svg>
