<svg width="24" height="24" viewBox="0 0 24 24" fill="none" xmlns="http://www.w3.org/2000/svg">
<path d="M12.18 20C12.36 20.72 12.65 21.39 13.04 22H6C4.89 22 4 21.11 4 20V4C4 3.46957 4.21071 2.96086 4.58579 2.58579C4.96086 2.21071 5.46957 2 6 2H18C18.5304 2 19.0391 2.21071 19.4142 2.58579C19.7893 2.96086 20 3.46957 20 4V12.18C19.5 12.07 19 12 18.5 12C18.33 12 18.17 12 18 12.03V4H13V12L10.5 9.75L8 12V4H6V20H12.18ZM23 18.5C23 21 21 23 18.5 23C16 23 14 21 14 18.5C14 16 16 14 18.5 14C21 14 23 16 23 18.5ZM20 21.08L15.92 17C15.65 17.42 15.5 17.94 15.5 18.5C15.5 20.16 16.84 21.5 18.5 21.5C19.06 21.5 19.58 21.35 20 21.08ZM21.5 18.5C21.5 16.84 20.16 15.5 18.5 15.5C17.94 15.5 17.42 15.65 17 15.92L21.08 20C21.35 19.58 21.5 19.06 21.5 18.5Z" fill="#FF4136"/>
</svg>
