<svg width="24" height="24" viewBox="0 0 24 24" fill="none" xmlns="http://www.w3.org/2000/svg">
<path d="M12 1.33334C9.89032 1.33334 7.82803 1.95892 6.0739 3.13099C4.31978 4.30306 2.9526 5.96897 2.14527 7.91805C1.33793 9.86712 1.1267 12.0118 1.53827 14.081C1.94985 16.1501 2.96575 18.0507 4.45751 19.5425C5.94927 21.0342 7.84989 22.0501 9.91902 22.4617C11.9882 22.8733 14.1329 22.6621 16.0819 21.8547C18.031 21.0474 19.6969 19.6802 20.869 17.9261C22.0411 16.172 22.6667 14.1097 22.6667 12C22.6667 9.17103 21.5428 6.45792 19.5425 4.45753C17.5421 2.45714 14.829 1.33334 12 1.33334ZM2.66665 12C2.66729 9.75726 3.47952 7.59051 4.95332 5.9L18.1 19.0467C16.7479 20.2142 15.0892 20.9692 13.3207 21.222C11.5523 21.4748 9.74848 21.2148 8.12345 20.4728C6.49841 19.7309 5.12044 18.5381 4.15318 17.0362C3.18591 15.5343 2.66998 13.7864 2.66665 12ZM19.0467 18.1L5.89998 4.95334C7.68889 3.45862 9.97239 2.68747 12.3012 2.79158C14.6301 2.8957 16.8357 3.86755 18.484 5.51594C20.1324 7.16433 21.1043 9.3699 21.2084 11.6987C21.3125 14.0276 20.5414 16.3111 19.0467 18.1Z" fill="#FF4136"/>
</svg>
