<svg width="24" height="24" viewBox="0 0 24 24" fill="none" xmlns="http://www.w3.org/2000/svg">
<path d="M19.9721 4.07475C17.8733 1.97595 15.0267 0.79686 12.0586 0.79686C9.09043 0.79686 6.24385 1.97595 4.14505 4.07475C2.04625 6.17355 0.867157 9.02013 0.867157 11.9883C0.867157 14.9564 2.04625 17.803 4.14505 19.9018C6.24385 22.0006 9.09043 23.1797 12.0586 23.1797C15.0267 23.1797 17.8733 22.0006 19.9721 19.9018C22.0709 17.803 23.25 14.9564 23.25 11.9883C23.25 9.02013 22.0709 6.17355 19.9721 4.07475ZM12.0586 21.6797C6.71483 21.6797 2.36717 17.3321 2.36717 11.9883C2.36717 6.64444 6.71474 2.29688 12.0586 2.29688C17.4024 2.29688 21.75 6.64444 21.75 11.9883C21.75 17.3321 17.4024 21.6797 12.0586 21.6797Z" fill="#2EB85C"/>
<path d="M10.372 14.3348L6.93079 10.8936L5.87015 11.9542L10.372 16.4561L18.2236 8.60456L17.1629 7.54392L10.372 14.3348Z" fill="#2EB85C"/>
</svg>
