<svg width="24" height="24" viewBox="0 0 24 24" fill="none" xmlns="http://www.w3.org/2000/svg">
<g clip-path="url(#clip0)">
<path d="M15 3H7C6.46957 3 5.96086 3.21071 5.58579 3.58579C5.21071 3.96086 5 4.46957 5 5V21C5 21.5304 5.21071 22.0391 5.58579 22.4142C5.96086 22.7893 6.46957 23 7 23H14C13.59 22.75 13.2 22.44 12.86 22.1C12.53 21.77 12.25 21.4 12 21H7V5H14V10H19V11.18C19.71 11.34 20.39 11.61 21 12V9L15 3ZM21.31 19.9C22.64 17.79 22 15 19.91 13.68C17.8 12.35 15 13 13.69 15.08C12.35 17.19 13 19.97 15.09 21.3C16.55 22.23 18.41 22.23 19.88 21.32L23 24.39L24.39 23L21.31 19.9ZM17.5 20C16.837 20 16.2011 19.7366 15.7322 19.2678C15.2634 18.7989 15 18.163 15 17.5C15 16.837 15.2634 16.2011 15.7322 15.7322C16.2011 15.2634 16.837 15 17.5 15C18.163 15 18.7989 15.2634 19.2678 15.7322C19.7366 16.2011 20 16.837 20 17.5C20 18.163 19.7366 18.7989 19.2678 19.2678C18.7989 19.7366 18.163 20 17.5 20Z" fill="#2EB85C"/>
</g>
<defs>
<clipPath id="clip0">
<rect width="24" height="24" fill="white"/>
</clipPath>
</defs>
</svg>
