<svg width="24" height="24" viewBox="0 0 24 24" fill="none" xmlns="http://www.w3.org/2000/svg">
<path d="M14.5 8H13V13L17.28 15.54L18 14.33L14.5 12.25V8ZM14 3C11.6131 3 9.32387 3.94821 7.63604 5.63604C5.94821 7.32387 5 9.61305 5 12H2L5.96 16.03L10 12H7C7 10.1435 7.7375 8.36301 9.05025 7.05025C10.363 5.7375 12.1435 5 14 5C15.8565 5 17.637 5.7375 18.9497 7.05025C20.2625 8.36301 21 10.1435 21 12C21 13.8565 20.2625 15.637 18.9497 16.9497C17.637 18.2625 15.8565 19 14 19C12.07 19 10.32 18.21 9.06 16.94L7.64 18.36C8.47147 19.2006 9.46218 19.8671 10.5542 20.3203C11.6462 20.7736 12.8176 21.0047 14 21C16.3869 21 18.6761 20.0518 20.364 18.364C22.0518 16.6761 23 14.3869 23 12C23 9.61305 22.0518 7.32387 20.364 5.63604C18.6761 3.94821 16.3869 3 14 3Z" fill="#FFC107"/>
</svg>
