<svg enable-background="new 0 0 32 32" height="512" viewBox="0 0 32 32" width="512" xmlns="http://www.w3.org/2000/svg"><g id="BG"><path d="m26 32h-20c-3.314 0-6-2.686-6-6v-20c0-3.314 2.686-6 6-6h20c3.314 0 6 2.686 6 6v20c0 3.314-2.686 6-6 6z" fill="#ffe6e2"/></g><g id="Layer_3"><path d="m8.733 12h2.533c.406 0 .734-.328.734-.733v-2.534c0-.405-.328-.733-.733-.733h-2.534c-.405 0-.733.328-.733.733v2.533c0 .406.328.734.733.734z" fill="#fd907e"/><path d="m23.267 8h-9.2c-.405 0-.733.328-.733.733v2.533c0 .405.328.733.733.733h9.2c.405.001.733-.327.733-.732v-2.534c0-.405-.328-.733-.733-.733z" fill="#fc573b"/><path d="m8.733 18h2.533c.406 0 .734-.328.734-.733v-2.533c0-.406-.328-.734-.733-.734h-2.534c-.405 0-.733.328-.733.733v2.533c0 .406.328.734.733.734z" fill="#fc573b"/><path d="m23.267 14h-9.2c-.405 0-.733.328-.733.733v2.533c0 .405.328.733.733.733h9.2c.405.001.733-.327.733-.732v-2.533c0-.406-.328-.734-.733-.734z" fill="#fd907e"/><path d="m8.733 24h2.533c.406 0 .734-.328.734-.733v-2.533c0-.406-.328-.734-.733-.734h-2.534c-.405 0-.733.328-.733.733v2.533c0 .406.328.734.733.734z" fill="#fd907e"/><path d="m23.267 20h-9.2c-.405 0-.733.328-.733.733v2.533c0 .405.328.733.733.733h9.2c.405.001.733-.327.733-.732v-2.533c0-.406-.328-.734-.733-.734z" fill="#fc573b"/></g></svg>