<svg width="25" height="24" viewBox="0 0 25 24" fill="none" xmlns="http://www.w3.org/2000/svg">
<g clip-path="url(#clip0)">
<path d="M22.5116 24H1.51163C1.10538 24 0.753815 23.8516 0.45694 23.5547C0.160065 23.2578 0.0116272 22.9063 0.0116272 22.5V15C0.0116272 14.5781 0.160065 14.2227 0.45694 13.9336C0.753815 13.6445 1.10538 13.5 1.51163 13.5H22.5116C22.9179 13.5 23.2694 13.6445 23.5663 13.9336C23.8632 14.2227 24.0116 14.5781 24.0116 15V22.5C24.0116 22.9063 23.8632 23.2578 23.5663 23.5547C23.2694 23.8516 22.9179 24 22.5116 24ZM22.5116 15.75C22.5116 15.5469 22.4374 15.3711 22.289 15.2227C22.1405 15.0742 21.9648 15 21.7616 15H2.26163C2.0585 15 1.88272 15.0742 1.73428 15.2227C1.58585 15.3711 1.51163 15.5469 1.51163 15.75V21.75C1.51163 21.9531 1.58585 22.1289 1.73428 22.2773C1.88272 22.4258 2.0585 22.5 2.26163 22.5H21.7616C21.9648 22.5 22.1405 22.4258 22.289 22.2773C22.4374 22.1289 22.5116 21.9531 22.5116 21.75V15.75ZM18.0116 21C17.5898 21 17.2343 20.8516 16.9452 20.5547C16.6562 20.2578 16.5116 19.9023 16.5116 19.4883C16.5116 19.0742 16.6562 18.7227 16.9452 18.4336C17.2343 18.1445 17.5898 18 18.0116 18C18.4335 18 18.789 18.1445 19.078 18.4336C19.3671 18.7227 19.5116 19.0742 19.5116 19.4883C19.5116 19.9023 19.3671 20.2578 19.078 20.5547C18.789 20.8516 18.4335 21 18.0116 21ZM13.5233 21C13.1093 21 12.7538 20.8516 12.4569 20.5547C12.1601 20.2578 12.0116 19.9023 12.0116 19.4883C12.0116 19.0742 12.1601 18.7227 12.4569 18.4336C12.7538 18.1445 13.1093 18 13.5233 18C13.9374 18 14.289 18.1445 14.578 18.4336C14.8671 18.7227 15.0116 19.0742 15.0116 19.4883C15.0116 19.9023 14.8671 20.2578 14.578 20.5547C14.289 20.8516 13.9374 21 13.5233 21ZM9.01163 21C8.58975 21 8.23428 20.8516 7.94522 20.5547C7.65616 20.2578 7.51163 19.9023 7.51163 19.4883C7.51163 19.0742 7.65616 18.7227 7.94522 18.4336C8.23428 18.1445 8.58975 18 9.01163 18C9.4335 18 9.78897 18.1445 10.078 18.4336C10.3671 18.7227 10.5116 19.0742 10.5116 19.4883C10.5116 19.9023 10.3671 20.2578 10.078 20.5547C9.78897 20.8516 9.4335 21 9.01163 21ZM4.51163 21C4.08975 21 3.73428 20.8516 3.44522 20.5547C3.15616 20.2578 3.01163 19.9023 3.01163 19.4883C3.01163 19.0742 3.15616 18.7227 3.44522 18.4336C3.73428 18.1445 4.08975 18 4.51163 18C4.9335 18 5.28897 18.1445 5.57803 18.4336C5.8671 18.7227 6.01163 19.0742 6.01163 19.4883C6.01163 19.9023 5.8671 20.2578 5.57803 20.5547C5.28897 20.8516 4.9335 21 4.51163 21ZM22.5116 10.5H1.51163C1.10538 10.5 0.753815 10.3516 0.45694 10.0547C0.160065 9.75781 0.0116272 9.40625 0.0116272 9V1.5C0.0116272 1.07812 0.160065 0.722656 0.45694 0.433594C0.753815 0.144531 1.10538 0 1.51163 0H22.5116C22.9179 0 23.2694 0.144531 23.5663 0.433594C23.8632 0.722656 24.0116 1.07812 24.0116 1.5V9C24.0116 9.40625 23.8632 9.75781 23.5663 10.0547C23.2694 10.3516 22.9179 10.5 22.5116 10.5ZM22.5116 2.25C22.5116 2.04687 22.4374 1.87109 22.289 1.72266C22.1405 1.57422 21.9648 1.5 21.7616 1.5H2.26163C2.0585 1.5 1.88272 1.57422 1.73428 1.72266C1.58585 1.87109 1.51163 2.04687 1.51163 2.25V8.25C1.51163 8.45313 1.58585 8.62891 1.73428 8.77734C1.88272 8.92578 2.0585 9 2.26163 9H21.7616C21.9648 9 22.1405 8.92578 22.289 8.77734C22.4374 8.62891 22.5116 8.45313 22.5116 8.25V2.25ZM3.76163 7.5C3.5585 7.5 3.38272 7.42578 3.23428 7.27734C3.08585 7.12891 3.01163 6.95313 3.01163 6.75V3.75C3.01163 3.54687 3.08585 3.37109 3.23428 3.22266C3.38272 3.07422 3.5585 3 3.76163 3C3.96475 3 4.14053 3.07422 4.28897 3.22266C4.43741 3.37109 4.51163 3.54687 4.51163 3.75V6.75C4.51163 6.95313 4.43741 7.12891 4.28897 7.27734C4.14053 7.42578 3.96475 7.5 3.76163 7.5Z" fill="#2EB85C"/>
</g>
<defs>
<clipPath id="clip0">
<rect width="24.03" height="24" fill="white"/>
</clipPath>
</defs>
</svg>
