<svg id="Capa_1" enable-background="new 0 0 426.703 426.703" width="24" height="24" viewBox="0 0 426.703 426.703" width="24" xmlns="http://www.w3.org/2000/svg"><g><path d="m63.558 273.532h298.323v51.751h-298.323z" fill="#4d5160"/><path d="m96.222 267.86h232.975v129.593h-232.975z" fill="#eeefee"/><path d="m39.366 324.862h24.197v.422h-24.197z" fill="#ccd0d2"/><path d="m361.886 324.862h24.197v.422h-24.197z" fill="#ccd0d2"/><path d="m64.167 83.681h298.359v101.623h-298.359z" fill="#4d5160"/><path d="m100.827 29.25h225.039v103.658h-225.039z" fill="#eeefee"/><path d="m405.711 130.092h-384.719c-11.591-.002-20.989 9.391-20.992 20.982v.01 153.202c-.003 11.591 9.391 20.989 20.981 20.992h.01 42.566v-51.746h298.328v51.751h43.826c11.591.003 20.989-9.391 20.992-20.981 0-.005 0-.01 0-.016v-153.202c.003-11.591-9.391-20.989-20.981-20.992-.004 0-.007 0-.011 0z" fill="#62667c"/><g fill="#dbd8dd"><path d="m114.731 299.197h196.013v7.858h-196.013z"/><path d="m114.731 329.566h196.013v7.858h-196.013z"/><path d="m114.731 359.934h196.013v7.858h-196.013z"/></g><path d="m.005 186.61h426.687v13.779h-426.687z" fill="#4d5160"/><path d="m46.833 158.947c-.012 5.139-4.186 9.295-9.325 9.283s-9.295-4.186-9.283-9.325c.011-5.122 4.161-9.272 9.283-9.283 5.144-.006 9.319 4.16 9.325 9.304z" fill="#ef5261"/><path d="m82.479 158.947c-.012 5.139-4.186 9.295-9.325 9.283s-9.295-4.186-9.283-9.325c.011-5.122 4.161-9.272 9.283-9.283 5.144-.006 9.319 4.16 9.325 9.304z" fill="#2cbfae"/></g></svg>