<svg width="24" height="24" viewBox="0 0 24 24" fill="none" xmlns="http://www.w3.org/2000/svg">
<path d="M18.3753 7.66738L22 11.2921H19.2708C19.2708 13.3106 18.5601 15.0306 17.1386 16.452C15.7171 17.8735 14.0114 18.5842 12.0213 18.5842C10.6283 18.5842 9.33475 18.2004 8.14073 17.4328L9.46269 16.1109C10.2303 16.5373 11.0832 16.7505 12.0213 16.7505C13.5281 16.7505 14.8145 16.2175 15.8806 15.1514C16.9467 14.0853 17.4797 12.7989 17.4797 11.2921H14.7505L18.3753 7.66738ZM6.5629 11.2921H9.29211L5.62473 14.9168L2 11.2921H4.72921C4.72921 9.27363 5.43994 7.55366 6.86141 6.1322C8.28287 4.71073 10.0028 4 12.0213 4C13.4144 4 14.7079 4.3838 15.9019 5.15139L14.5373 6.47335C13.7697 6.04691 12.9311 5.83369 12.0213 5.83369C10.5146 5.83369 9.22815 6.36674 8.16205 7.43284C7.09595 8.49893 6.5629 9.78536 6.5629 11.2921Z" fill="#2EB85C"/>
</svg>
