<svg width="24" height="24" viewBox="0 0 24 24" fill="none" xmlns="http://www.w3.org/2000/svg">
<path d="M8.2 5.00001L6.2 3.00001H17L21 7.00001V17.8L19 15.8V7.83001L16.17 5.00001H8.2ZM15 10V6.00001H9.2L13.2 10H15ZM22.11 21.46L20.84 22.73L19.1 21H5C4.46957 21 3.96086 20.7893 3.58579 20.4142C3.21071 20.0392 3 19.5304 3 19V5.00001V4.90001L1.11 3.00001L2.39 1.73001L22.11 21.46ZM17.11 19L14.59 16.5C14.3609 16.8991 14.0429 17.24 13.6608 17.4963C13.2786 17.7526 12.8426 17.9175 12.3864 17.9781C11.9303 18.0387 11.4663 17.9934 11.0305 17.8457C10.5947 17.6981 10.1987 17.452 9.87335 17.1267C9.54798 16.8013 9.30192 16.4053 9.15427 15.9695C9.00662 15.5337 8.96134 15.0697 9.02194 14.6136C9.08254 14.1574 9.2474 13.7214 9.50373 13.3393C9.76005 12.9571 10.101 12.6391 10.5 12.41L8.11 10H6V7.89001L5 6.89001V19H17.11Z" fill="#FF4136"/>
</svg>
