<?xml version="1.0" encoding="UTF-8" standalone="no"?>
<!DOCTYPE svg PUBLIC "-//W3C//DTD SVG 1.1//EN" "http://www.w3.org/Graphics/SVG/1.1/DTD/svg11.dtd">
<svg version="1.1" xmlns="http://www.w3.org/2000/svg" xmlns:xlink="http://www.w3.org/1999/xlink" preserveAspectRatio="xMidYMid meet" viewBox="0 0 640 640" width="24" height="24"><defs><path d="M85.88 423.01C80.93 423.01 76.66 424.82 73.04 428.43C69.43 432.03 67.63 436.32 67.63 441.26C67.63 448.56 67.63 506.96 67.63 514.26C67.63 519.19 69.43 523.48 73.04 527.09C76.66 530.7 80.94 532.51 85.88 532.51C133.33 532.51 512.93 532.51 560.37 532.51C565.31 532.51 569.6 530.7 573.21 527.09C576.82 523.48 578.63 519.19 578.63 514.26C578.63 506.96 578.63 448.56 578.63 441.26C578.63 436.32 576.82 432.03 573.21 428.43C569.59 424.82 565.31 423.01 560.37 423.01C465.47 423.01 133.33 423.01 85.88 423.01ZM359.63 496.01L359.63 459.51L542.13 459.51L542.13 496.01L542.12 496.01L359.63 496.01Z" id="a19Y9KLD5W"></path><path d="M84.44 277.01C79.49 277.01 75.22 278.82 71.6 282.43C67.99 286.04 66.19 290.32 66.19 295.26C66.19 302.56 66.19 360.96 66.19 368.26C66.19 373.2 67.99 377.48 71.6 381.09C75.22 384.7 79.5 386.51 84.44 386.51C131.89 386.51 511.49 386.51 558.94 386.51C563.87 386.51 568.16 384.7 571.77 381.09C575.38 377.48 577.19 373.2 577.19 368.26C577.19 360.96 577.19 302.56 577.19 295.26C577.19 290.32 575.38 286.04 571.77 282.43C568.16 278.82 563.87 277.01 558.94 277.01C464.04 277.01 131.89 277.01 84.44 277.01ZM248.69 350.01L248.69 313.51L540.68 313.51L540.68 350.01L248.69 350.01Z" id="d2mx3P10mj"></path><path d="M558.94 131.01C511.49 131.01 131.89 131.01 84.44 131.01C79.49 131.01 75.22 132.82 71.6 136.43C67.99 140.04 66.19 144.32 66.19 149.26C66.19 156.56 66.19 214.96 66.19 222.26C66.19 227.2 67.99 231.48 71.6 235.09C75.22 238.7 79.5 240.51 84.44 240.51C131.89 240.51 511.49 240.51 558.94 240.51C563.87 240.51 568.16 238.7 571.77 235.09C575.38 231.48 577.19 227.2 577.19 222.26C577.19 214.96 577.19 156.56 577.19 149.26C577.19 144.32 575.38 140.04 571.77 136.43C568.16 132.82 563.87 131.01 558.94 131.01ZM431.19 204.01L431.19 167.51L540.68 167.51L540.68 204.01L431.19 204.01Z" id="g6mv7PHht"></path></defs><g><g><g><use xlink:href="#a19Y9KLD5W" opacity="1" fill="#2fa9c8" fill-opacity="1"></use><g><use xlink:href="#a19Y9KLD5W" opacity="1" fill-opacity="0" stroke="#000000" stroke-width="1" stroke-opacity="0"></use></g></g><g><use xlink:href="#d2mx3P10mj" opacity="1" fill="#2fa9c8" fill-opacity="1"></use><g><use xlink:href="#d2mx3P10mj" opacity="1" fill-opacity="0" stroke="#000000" stroke-width="1" stroke-opacity="0"></use></g></g><g><use xlink:href="#g6mv7PHht" opacity="1" fill="#2fa9c8" fill-opacity="1"></use><g><use xlink:href="#g6mv7PHht" opacity="1" fill-opacity="0" stroke="#000000" stroke-width="1" stroke-opacity="0"></use></g></g></g></g></svg>