<svg width="24" height="24" viewBox="0 0 24 24" fill="none" xmlns="http://www.w3.org/2000/svg">
<path d="M12 3C11.2044 3 10.4413 3.31607 9.87868 3.87868C9.31607 4.44129 9 5.20435 9 6C9 9 14 13 6 13C5.46957 13 4.96086 13.2107 4.58579 13.5858C4.21071 13.9609 4 14.4696 4 15V17H20V15C20 14.4696 19.7893 13.9609 19.4142 13.5858C19.0391 13.2107 18.5304 13 18 13C10 13 15 9 15 6C15 4 13.66 3 12 3ZM6 19V21H18V19H6Z" fill="#FF4136"/>
<line x1="4.3641" y1="3.65732" x2="20.3641" y2="20.6573" stroke="white"/>
<line x1="4.3641" y1="4.65732" x2="20.3641" y2="21.6573" stroke="#FF4136"/>
</svg>
