<svg width="24" height="24" viewBox="0 0 24 24" fill="none" xmlns="http://www.w3.org/2000/svg">
<path d="M10.25 6.75C10.25 8.683 8.683 10.25 6.75 10.25C4.817 10.25 3.25 8.683 3.25 6.75C3.25 4.817 4.817 3.25 6.75 3.25C8.683 3.25 10.25 4.817 10.25 6.75Z" stroke="white" stroke-linecap="round" stroke-linejoin="round"/>
<path d="M20.75 17.25C20.75 19.183 19.183 20.75 17.25 20.75C15.317 20.75 13.75 19.183 13.75 17.25C13.75 15.317 15.317 13.75 17.25 13.75C19.183 13.75 20.75 15.317 20.75 17.25Z" stroke="white" stroke-linecap="round" stroke-linejoin="round"/>
<path d="M20.75 6.75C20.75 8.683 19.183 10.25 17.25 10.25C15.317 10.25 13.75 8.683 13.75 6.75C13.75 4.817 15.317 3.25 17.25 3.25C19.183 3.25 20.75 4.817 20.75 6.75Z" stroke="white" stroke-linecap="round" stroke-linejoin="round"/>
<path d="M10.25 17.25C10.25 19.183 8.683 20.75 6.75 20.75C4.817 20.75 3.25 19.183 3.25 17.25C3.25 15.317 4.817 13.75 6.75 13.75C8.683 13.75 10.25 15.317 10.25 17.25Z" stroke="white" stroke-linecap="round" stroke-linejoin="round"/>
</svg>
