<svg width="19" height="22" viewBox="0 0 19 22" fill="none" xmlns="http://www.w3.org/2000/svg">
<g clip-path="url(#clip0)">
<path d="M2.88266 22H18.4373V20.1523H2.88266C2.25245 20.1523 1.93735 19.8516 1.93735 19.25C1.93735 18.6484 2.25245 18.3477 2.88266 18.3477H18.4373V0H2.88266C2.08058 0 1.42172 0.264974 0.906097 0.794922C0.390472 1.32487 0.13266 1.97656 0.13266 2.75V18.3477H0.304535C0.189952 18.6914 0.13266 18.9922 0.13266 19.25C0.13266 20.0234 0.390472 20.6751 0.906097 21.2051C1.42172 21.735 2.08058 22 2.88266 22ZM1.93735 2.75C1.93735 2.14844 2.25245 1.84766 2.88266 1.84766H16.6327V16.5H2.88266C2.65349 16.5 2.33839 16.5573 1.93735 16.6719V2.75ZM5.63266 7.34766H13.8827V9.15234H5.63266V7.34766ZM5.63266 3.65234H13.8827V5.5H5.63266V3.65234Z" fill="white"/>
</g>
<defs>
<clipPath id="clip0">
<rect width="18.57" height="22" fill="white"/>
</clipPath>
</defs>
</svg>
