<svg width="24" height="24" viewBox="0 0 24 24" fill="none" xmlns="http://www.w3.org/2000/svg">
<path d="M22.5 2.25H16.5V0.75C16.5 0.546875 16.4258 0.371094 16.2773 0.222656C16.1289 0.0742187 15.9531 0 15.75 0C15.5469 0 15.3711 0.0742187 15.2227 0.222656C15.0742 0.371094 15 0.546875 15 0.75V2.25H9V0.75C9 0.546875 8.92578 0.371094 8.77734 0.222656C8.62891 0.0742187 8.45313 0 8.25 0C8.04687 0 7.87109 0.0742187 7.72266 0.222656C7.57422 0.371094 7.5 0.546875 7.5 0.75V2.25H1.5C1.07812 2.25 0.722656 2.39453 0.433594 2.68359C0.144531 2.97266 0 3.32812 0 3.75V22.5C0 22.7656 0.0664063 23.0156 0.199219 23.25C0.332031 23.4844 0.515625 23.668 0.75 23.8008C0.984375 23.9336 1.23438 24 1.5 24H22.5C22.9219 24 23.2773 23.8516 23.5664 23.5547C23.8555 23.2578 24 22.9063 24 22.5V3.75C24 3.46875 23.9336 3.21484 23.8008 2.98828C23.668 2.76172 23.4844 2.58203 23.25 2.44922C23.0156 2.31641 22.7656 2.25 22.5 2.25ZM22.5 22.5H1.5V3.75H7.5V4.5C7.5 4.70313 7.57422 4.87891 7.72266 5.02734C7.87109 5.17578 8.04687 5.25 8.25 5.25C8.45313 5.25 8.62891 5.17578 8.77734 5.02734C8.92578 4.87891 9 4.70313 9 4.5V3.75H15V4.5C15 4.70313 15.0742 4.87891 15.2227 5.02734C15.3711 5.17578 15.5469 5.25 15.75 5.25C15.9531 5.25 16.1289 5.17578 16.2773 5.02734C16.4258 4.87891 16.5 4.70313 16.5 4.5V3.75H22.5V22.5ZM17.25 12H18.75C18.9531 12 19.1289 11.9258 19.2773 11.7773C19.4258 11.6289 19.5 11.4531 19.5 11.25V9.75C19.5 9.54687 19.4258 9.37109 19.2773 9.22266C19.1289 9.07422 18.9531 9 18.75 9H17.25C17.0469 9 16.8711 9.07422 16.7227 9.22266C16.5742 9.37109 16.5 9.54687 16.5 9.75V11.25C16.5 11.4531 16.5742 11.6289 16.7227 11.7773C16.8711 11.9258 17.0469 12 17.25 12ZM17.25 18H18.75C18.9531 18 19.1289 17.9258 19.2773 17.7773C19.4258 17.6289 19.5 17.4531 19.5 17.25V15.75C19.5 15.5469 19.4258 15.3711 19.2773 15.2227C19.1289 15.0742 18.9531 15 18.75 15H17.25C17.0469 15 16.8711 15.0742 16.7227 15.2227C16.5742 15.3711 16.5 15.5469 16.5 15.75V17.25C16.5 17.4531 16.5742 17.6289 16.7227 17.7773C16.8711 17.9258 17.0469 18 17.25 18ZM12.75 15H11.25C11.0469 15 10.8711 15.0742 10.7227 15.2227C10.5742 15.3711 10.5 15.5469 10.5 15.75V17.25C10.5 17.3281 10.5117 17.4063 10.5352 17.4844C10.5586 17.5625 10.5938 17.6328 10.6406 17.6953C10.6875 17.7578 10.7422 17.8125 10.8047 17.8594C10.8672 17.9062 10.9375 17.9414 11.0156 17.9648C11.0937 17.9883 11.1719 18 11.25 18H12.75C12.9531 18 13.1289 17.9258 13.2773 17.7773C13.4258 17.6289 13.5 17.4531 13.5 17.25V15.75C13.5 15.6875 13.4922 15.6211 13.4766 15.5508C13.4609 15.4805 13.4375 15.418 13.4062 15.3633C13.375 15.3086 13.3359 15.2578 13.2891 15.2109C13.2422 15.1641 13.1914 15.125 13.1367 15.0938C13.082 15.0625 13.0195 15.0391 12.9492 15.0234C12.8789 15.0078 12.8125 15 12.75 15ZM12.75 9H11.25C11.0469 9 10.8711 9.07422 10.7227 9.22266C10.5742 9.37109 10.5 9.54687 10.5 9.75V11.25C10.5 11.4531 10.5742 11.6289 10.7227 11.7773C10.8711 11.9258 11.0469 12 11.25 12H12.75C12.9531 12 13.1289 11.9258 13.2773 11.7773C13.4258 11.6289 13.5 11.4531 13.5 11.25V9.75C13.5 9.64063 13.4805 9.54297 13.4414 9.45703C13.4023 9.37109 13.3477 9.29297 13.2773 9.22266C13.207 9.15234 13.1289 9.09766 13.043 9.05859C12.957 9.01953 12.8594 9 12.75 9ZM6.75 9H5.25C5.04687 9 4.87109 9.07422 4.72266 9.22266C4.57422 9.37109 4.5 9.54687 4.5 9.75V11.25C4.5 11.4531 4.57422 11.6289 4.72266 11.7773C4.87109 11.9258 5.04687 12 5.25 12H6.75C6.95313 12 7.12891 11.9258 7.27734 11.7773C7.42578 11.6289 7.5 11.4531 7.5 11.25V9.75C7.5 9.64063 7.48047 9.54297 7.44141 9.45703C7.40234 9.37109 7.34766 9.29297 7.27734 9.22266C7.20703 9.15234 7.12891 9.09766 7.04297 9.05859C6.95703 9.01953 6.85937 9 6.75 9ZM6.75 15H5.25C5.04687 15 4.87109 15.0742 4.72266 15.2227C4.57422 15.3711 4.5 15.5469 4.5 15.75V17.25C4.5 17.4531 4.57422 17.6289 4.72266 17.7773C4.87109 17.9258 5.04687 18 5.25 18H6.75C6.95313 18 7.12891 17.9258 7.27734 17.7773C7.42578 17.6289 7.5 17.4531 7.5 17.25V15.75C7.5 15.6875 7.49219 15.6211 7.47656 15.5508C7.46094 15.4805 7.4375 15.418 7.40625 15.3633C7.375 15.3086 7.33594 15.2578 7.28906 15.2109C7.24219 15.1641 7.19141 15.125 7.13672 15.0938C7.08203 15.0625 7.01953 15.0391 6.94922 15.0234C6.87891 15.0078 6.8125 15 6.75 15Z" fill="white"/>
</svg>
