<svg width="24" height="24" viewBox="0 0 24 24" fill="none" xmlns="http://www.w3.org/2000/svg">
<path fill-rule="evenodd" clip-rule="evenodd" d="M14.25 1.15L19.35 6.4L19.5 7V10H18V8.5H12V2.5H4.5V19H10.5V20.5H3.75L3 19.75V1.75L3.75 1H13.8L14.25 1.15ZM13.5 2.5V7H17.85L13.5 2.5Z" fill="white"/>
<path d="M16.994 12C13.682 12 11 14.688 11 18C11 21.312 13.682 24 16.994 24C20.312 24 23 21.312 23 18C23 14.688 20.312 12 16.994 12ZM17 22.8C14.348 22.8 12.2 20.652 12.2 18C12.2 15.348 14.348 13.2 17 13.2C19.652 13.2 21.8 15.348 21.8 18C21.8 20.652 19.652 22.8 17 22.8ZM17.3 15H16.4V18.6L19.55 20.49L20 19.752L17.3 18.15V15Z" fill="white"/>
</svg>
