<svg width="24" height="24" viewBox="0 0 24 24" fill="none" xmlns="http://www.w3.org/2000/svg">
<path fill-rule="evenodd" clip-rule="evenodd" d="M14.25 1.15L19.35 6.4L19.5 7V10H18V8.5H12V2.5H4.5V19H10.5V20.5H3.75L3 19.75V1.75L3.75 1H13.8L14.25 1.15ZM13.5 2.5V7H17.85L13.5 2.5Z" fill="white"/>
<path d="M20.4297 14.2232C20.5817 14.0784 20.784 13.9984 20.9939 14C21.2038 14.0016 21.4049 14.0847 21.5547 14.2317C21.7045 14.3787 21.7913 14.5782 21.7969 14.788C21.8024 14.9978 21.7263 15.2016 21.5844 15.3563L17.2786 20.7413C17.2045 20.8211 17.1152 20.8851 17.0158 20.9295C16.9165 20.9739 16.8092 20.9978 16.7004 20.9999C16.5916 21.0019 16.4835 20.9819 16.3826 20.9412C16.2817 20.9005 16.19 20.8399 16.1131 20.7629L13.2576 17.9074C13.1781 17.8333 13.1143 17.744 13.0701 17.6447C13.0258 17.5454 13.002 17.4382 13.0001 17.3296C12.9982 17.2209 13.0182 17.1129 13.0589 17.0122C13.0996 16.9114 13.1602 16.8198 13.2371 16.743C13.3139 16.6661 13.4055 16.6055 13.5062 16.5648C13.607 16.5241 13.715 16.5041 13.8237 16.506C13.9323 16.508 14.0395 16.5317 14.1388 16.576C14.2381 16.6202 14.3274 16.684 14.4015 16.7635L16.6613 19.0222L20.4092 14.2469C20.416 14.2386 20.4232 14.2307 20.4308 14.2232H20.4297Z" fill="white"/>
</svg>
