<svg width="24" height="24" viewBox="0 0 24 24" fill="none" xmlns="http://www.w3.org/2000/svg">
<path d="M22.5533 15.62C22.5602 15.4621 22.5185 15.3059 22.4339 15.1724C22.3493 15.0389 22.2257 14.9345 22.08 14.8733L20.96 14.54C20.9 14.38 20.84 14.22 20.7667 14.0667L21.2867 13.1067C21.3647 12.9596 21.3933 12.7913 21.3681 12.6268C21.3428 12.4622 21.2652 12.3102 21.1467 12.1933L20.2 11.2533C20.0823 11.1359 19.9299 11.0595 19.7654 11.0355C19.6009 11.0114 19.433 11.0411 19.2867 11.12L18.32 11.6267C18.155 11.5467 17.9858 11.4755 17.8133 11.4133L17.4933 10.36C17.4399 10.2073 17.3396 10.0754 17.2067 9.98322C17.0737 9.89102 16.9151 9.84322 16.7533 9.84667H15.42C15.2544 9.84653 15.0931 9.89957 14.9599 9.99799C14.8266 10.0964 14.7285 10.235 14.68 10.3933L14.3667 11.42C14.1919 11.4819 14.0205 11.5531 13.8533 11.6333L12.9067 11.1267C12.7611 11.0493 12.5946 11.0206 12.4315 11.0446C12.2684 11.0686 12.1172 11.144 12 11.26L11.0333 12.1933C10.9133 12.3107 10.8347 12.4639 10.8095 12.6299C10.7842 12.7959 10.8136 12.9656 10.8933 13.1133L11.3867 14C11.3092 14.1607 11.2402 14.3254 11.18 14.4933L10.1267 14.8067C9.96651 14.8531 9.82585 14.9504 9.726 15.0839C9.62614 15.2175 9.57255 15.3799 9.57333 15.5467V16.88C9.57399 17.0456 9.62826 17.2065 9.728 17.3387C9.82774 17.4709 9.96761 17.5673 10.1267 17.6133L11.1867 17.9267C11.2472 18.0901 11.3162 18.2504 11.3933 18.4067L10.8733 19.38C10.7953 19.527 10.7667 19.6953 10.7919 19.8599C10.8172 20.0244 10.8948 20.1764 11.0133 20.2933L11.96 21.2267C12.0769 21.3452 12.2289 21.4228 12.3935 21.4481C12.558 21.4733 12.7263 21.4447 12.8733 21.3667L13.86 20.8467C14.0133 20.92 14.1733 20.98 14.34 21.04L14.6667 22.12C14.7164 22.2771 14.815 22.4142 14.9481 22.5114C15.0812 22.6085 15.2419 22.6606 15.4067 22.66H16.74C16.9056 22.6601 17.0669 22.6071 17.2001 22.5087C17.3334 22.4103 17.4315 22.2717 17.48 22.1133L17.7933 21.06C17.9533 21.0067 18.1067 20.94 18.26 20.8667L19.26 21.3933C19.4056 21.4707 19.5721 21.4994 19.7352 21.4754C19.8983 21.4514 20.0495 21.376 20.1667 21.26L21.1133 20.3267C21.2334 20.2093 21.3119 20.0561 21.3372 19.8901C21.3625 19.7241 21.333 19.5544 21.2533 19.4067L20.7267 18.44C20.7978 18.2889 20.8622 18.1356 20.92 17.98L22 17.6667C22.1602 17.6203 22.3008 17.5229 22.4007 17.3894C22.5005 17.2559 22.5541 17.0934 22.5533 16.9267V15.62ZM21.4867 16.7067L20.08 17.12L20 17.4C19.9177 17.6757 19.806 17.9416 19.6667 18.1933L19.5267 18.4467L20.1933 19.72L19.5267 20.3867L18.1933 19.72L17.9467 19.8533C17.6921 19.9898 17.424 20.0993 17.1467 20.18L16.8667 20.26L16.4467 21.6533H15.6133L15.1933 20.2667L14.9133 20.1867C14.6337 20.1063 14.3634 19.9968 14.1067 19.86L13.86 19.7267L12.5667 20.3933L11.9 19.7267L12.5667 18.4333L12.42 18.18C12.2862 17.9102 12.1834 17.6262 12.1133 17.3333L12 17.0867L10.6667 16.6667V15.7933L12 15.3867L12.0867 15.1133C12.1732 14.8276 12.2917 14.5525 12.44 14.2933L12.6 14L11.9333 12.7667L12.6 12.14L13.86 12.8067L14.1133 12.6667C14.3798 12.5207 14.6615 12.4045 14.9533 12.32L15.2267 12.24L15.6467 10.9067H16.5667L16.98 12.24L17.2533 12.32C17.536 12.4062 17.8087 12.5224 18.0667 12.6667L18.32 12.8067L19.6 12.14L20.2667 12.8067L19.6 14.0667L19.74 14.32C19.8798 14.5761 19.9916 14.8466 20.0733 15.1267L20.1533 15.4067L21.5267 15.8133L21.4867 16.7067Z" fill="white"/>
<path d="M16.08 13.5667C15.555 13.5772 15.0448 13.7424 14.6133 14.0418C14.1818 14.3411 13.8484 14.7612 13.6547 15.2493C13.461 15.7374 13.4157 16.2718 13.5246 16.7855C13.6334 17.2992 13.8915 17.7694 14.2665 18.137C14.6415 18.5046 15.1166 18.7533 15.6324 18.852C16.1482 18.9506 16.6816 18.8948 17.1658 18.6915C17.6499 18.4882 18.0633 18.1465 18.354 17.7092C18.6448 17.2719 18.7999 16.7585 18.8 16.2333C18.7895 15.5201 18.4978 14.8399 17.9885 14.3405C17.4791 13.8412 16.7933 13.5631 16.08 13.5667V13.5667ZM16.08 17.8733C15.7611 17.8668 15.4512 17.7662 15.1892 17.5843C14.9273 17.4023 14.7248 17.1471 14.6073 16.8505C14.4898 16.554 14.4624 16.2294 14.5286 15.9173C14.5949 15.6053 14.7517 15.3198 14.9795 15.0966C15.2074 14.8733 15.496 14.7223 15.8093 14.6625C16.1227 14.6026 16.4467 14.6366 16.7407 14.7601C17.0348 14.8836 17.2859 15.0912 17.4625 15.3569C17.639 15.6225 17.7333 15.9344 17.7333 16.2533C17.7316 16.4687 17.6874 16.6816 17.6034 16.8799C17.5194 17.0782 17.3971 17.258 17.2436 17.4091C17.0901 17.5602 16.9083 17.6795 16.7086 17.7603C16.509 17.8411 16.2954 17.8818 16.08 17.88V17.8733Z" fill="white"/>
<path d="M9.66 20.6667H4.00001V3.33333H17.3333V8.59333C17.6243 8.67872 17.8937 8.82516 18.1237 9.02289C18.3536 9.22062 18.5387 9.46509 18.6667 9.74V3.33333C18.6667 2.97971 18.5262 2.64057 18.2761 2.39052C18.0261 2.14048 17.687 2 17.3333 2H4.00001C3.64638 2 3.30724 2.14048 3.0572 2.39052C2.80715 2.64057 2.66667 2.97971 2.66667 3.33333V20.6667C2.66667 21.0203 2.80715 21.3594 3.0572 21.6095C3.30724 21.8595 3.64638 22 4.00001 22H10.82L10.0867 21.28C9.90848 21.1031 9.76391 20.8953 9.66 20.6667V20.6667Z" fill="white"/>
</svg>
