<svg width="24" height="24" viewBox="0 0 24 24" fill="none" xmlns="http://www.w3.org/2000/svg">
<path fill-rule="evenodd" clip-rule="evenodd" d="M14.25 1.65L19.35 6.9L19.5 7.5V10.5H18V9H12V3H4.5V19.5H10.5V21H3.75L3 20.25V2.25L3.75 1.5H13.8L14.25 1.65ZM13.5 3V7.5H17.85L13.5 3Z" fill="white"/>
<path d="M21.84 14.4124L21.13 15.1224L19.01 13.0024L19.72 12.2924C19.8125 12.1997 19.9224 12.1262 20.0434 12.076C20.1643 12.0258 20.294 12 20.425 12C20.556 12 20.6857 12.0258 20.8066 12.076C20.9276 12.1262 21.0375 12.1997 21.13 12.2924L21.84 13.0024C22.23 13.3924 22.23 14.0224 21.84 14.4124ZM18.3 13.7124L20.42 15.8324L15.12 21.1324H13V19.0124L18.3 13.7124Z" fill="white"/>
</svg>
