<svg class="svg-icon" style="width: 1em;height: 1em;vertical-align: middle;fill: currentColor;overflow: hidden;" viewBox="0 0 1024 1024" version="1.1" xmlns="http://www.w3.org/2000/svg"><path d="M367.856 1000a8.016 8.016 0 0 1-7.968-7.312L329.28 636.72l-101.392 43.456A111.904 111.904 0 0 0 160 783.12V992a8 8 0 0 1-16 0V783.12a127.856 127.856 0 0 1 77.584-117.648l111.568-47.808a8 8 0 0 1 11.12 6.672l31.568 366.992a8 8 0 0 1-7.28 8.656l-0.704 0.016zM600 920a8 8 0 0 1-8-8v-48a8 8 0 0 1 16 0v48a8 8 0 0 1-8 8zM440 600a182.944 182.944 0 0 1-177.52-136.016C236.72 463.168 216 441.968 216 416s20.72-47.168 46.48-47.984A182.944 182.944 0 0 1 440 232c83.904 0 155.936 55.584 177.52 136.016 25.76 0.8 46.48 22.016 46.48 47.984s-20.72 47.168-46.48 47.984A182.928 182.928 0 0 1 440 600z m-172.544-152.304c3.84 0 8.128 2.384 8.976 6.048C294.048 530.432 361.312 584 440 584s145.952-53.568 163.584-130.256a7.776 7.776 0 0 1 8.736-6.16c2.144 0.288 2.896 0.416 3.68 0.416 17.648 0 32-14.352 32-32s-14.352-32-32-32c-0.784 0-1.536 0.128-2.288 0.24-4.112 0.464-9.2-1.936-10.144-5.984C585.952 301.568 518.688 248 440 248s-145.952 53.568-163.584 130.256a8 8 0 0 1-8.72 6.16c-2.176-0.288-2.928-0.416-3.696-0.416-17.648 0-32 14.352-32 32s14.352 32 32 32c0.768 0 1.52-0.128 2.272-0.224a7.248 7.248 0 0 1 1.184-0.08z" fill="#263238" /><path d="M280 400H272v-104h48v64a40 40 0 0 1-40 40z" fill="#FFD740" /><path d="M280 408H272a8 8 0 0 1-8-8v-104a8 8 0 0 1 8-8h48a8 8 0 0 1 8 8v64c0 26.464-21.536 48-48 48z m0-16h0.16-0.16z m0-88v88c17.648 0 32-14.352 32-32V304h-32z" fill="#263238" /><path d="M560 295.2v64.8a40 40 0 0 0 40 40h8v-126.96a79.68 79.68 0 0 1-48 22.16z" fill="#FFD740" /><path d="M608 408h-8c-26.464 0-48-21.536-48-48v-64.8a8 8 0 0 1 7.2-7.968 71.952 71.952 0 0 0 43.184-19.904 8 8 0 1 1 13.616 5.712V400a8 8 0 0 1-8 8z m-40-105.872V360c0 17.648 14.352 32 32 32v-102.416a89.12 89.12 0 0 1-32 12.544zM440 503.968a87.712 87.712 0 0 1-62.224-25.728 8 8 0 0 1 11.312-11.312 72.064 72.064 0 0 0 101.824 0 8 8 0 0 1 11.312 11.312 87.776 87.776 0 0 1-62.224 25.728z" fill="#263238" /><path d="M552 296H272a120 120 0 0 1 120-120h83.28c34.736 0 69.04-7.536 100.576-22.096L632 128v88a80 80 0 0 1-80 80z" fill="#FFD740" /><path d="M552 304H272a8 8 0 0 1-8-8c0-70.576 57.424-128 128-128h83.296c33.328 0 66.944-7.376 97.216-21.36l56.144-25.904A8.016 8.016 0 0 1 640 128v88c0 48.528-39.488 88-88 88z m-271.712-16H552c39.696 0 72-32.304 72-72V140.496l-44.784 20.672a249.84 249.84 0 0 1-103.936 22.832H392c-59.056 0-107.6 45.968-111.712 104z" fill="#263238" /><path d="M480 945.008L440 992 400 945.008 424 704h32z" fill="#40C4FF" /><path d="M440 1000a8 8 0 0 1-6.096-2.816l-40-47.008a8.064 8.064 0 0 1-1.872-5.984l24-240.992a8 8 0 0 1 7.968-7.216h32c4.112 0 7.552 3.12 7.968 7.216l24 240.992a8 8 0 0 1-1.872 5.984l-40 47.008a8 8 0 0 1-6.096 2.816z m-31.696-57.6l31.696 37.248 31.696-37.248-22.944-230.4h-17.52l-22.928 230.4zM280 1000a8 8 0 0 1-8-8V832a8 8 0 0 1 16 0v160a8 8 0 0 1-8 8zM600 1000a8 8 0 0 1-8-8V824c0-2.688 1.344-5.2 3.6-6.672a7.92 7.92 0 0 1 7.568-0.672l112.48 48.208a71.856 71.856 0 0 0 68-6.064A71.856 71.856 0 0 0 816 798.672V648h-112v96a8 8 0 0 1-16 0V640a8 8 0 0 1 8-8h128a8 8 0 0 1 8 8v158.672a87.76 87.76 0 0 1-39.568 73.472 87.728 87.728 0 0 1-83.104 7.408L608 836.128V992a8 8 0 0 1-8 8zM342.944 712a8.032 8.032 0 0 1-7.984-7.328l-6.656-78.992a7.968 7.968 0 0 1 4.816-8.016l39.696-17.008a8 8 0 0 1 9.808 2.912l32 48a8 8 0 0 1-1.904 10.88l-65.056 48a7.872 7.872 0 0 1-4.72 1.552z m1.808-81.904l4.976 58.976 47.392-34.976-24.08-36.112-28.288 12.112zM536.912 712a7.952 7.952 0 0 1-4.752-1.568l-64.912-48a8 8 0 0 1-1.904-10.864l32-48a8.032 8.032 0 0 1 9.808-2.912l39.712 17.008a8.016 8.016 0 0 1 4.816 8.032l-6.8 78.992a8.032 8.032 0 0 1-7.968 7.312z m-54.032-57.904l47.28 34.96 5.072-58.976-28.272-12.112-24.08 36.128z" fill="#263238" /><path d="M456 712h-32c-13.232 0-24-10.768-24-24v-16c0-13.232 10.768-24 24-24h32c13.232 0 24 10.768 24 24v16c0 13.232-10.768 24-24 24z m-32-48a8 8 0 0 0-8 8v16a8 8 0 0 0 8 8h32a8 8 0 0 0 8-8v-16a8 8 0 0 0-8-8h-32z" fill="#263238" /><path d="M468.096 669.856a7.984 7.984 0 0 1-6.128-2.864 7.952 7.952 0 0 0-5.984-2.992h-32a7.952 7.952 0 0 0-5.984 2.992 8 8 0 0 1-12.784-0.704l-35.904-53.856A8.16 8.16 0 0 1 368 608v-28.16a8.016 8.016 0 0 1 10.912-7.44c39.344 15.408 82.832 15.408 122.176 0a7.968 7.968 0 0 1 10.912 7.44V608a7.936 7.936 0 0 1-1.344 4.432l-35.904 53.856a8 8 0 0 1-6.224 3.552l-0.432 0.016zM424 648h32c3.536 0 6.992 0.816 10.144 2.352L496 605.584v-14.4a182.896 182.896 0 0 1-112 0v14.4l29.856 44.784c3.152-1.552 6.608-2.368 10.144-2.368zM256 592H136a8 8 0 0 1 0-16H256a8 8 0 0 1 0 16zM104 592h-16a8 8 0 0 1 0-16h16a8 8 0 0 1 0 16zM888 952H768a8 8 0 0 1 0-16h120a8 8 0 0 1 0 16zM936 952h-16a8 8 0 0 1 0-16h16a8 8 0 0 1 0 16zM704 556h-32c-13.232 0-24-10.768-24-24v-8c0-13.232 10.768-24 24-24h32c13.232 0 24 10.768 24 24v8c0 13.232-10.768 24-24 24z m-32-40a8 8 0 0 0-8 8v8a8 8 0 0 0 8 8h32a8 8 0 0 0 8-8v-8a8 8 0 0 0-8-8h-32zM824 536H816c-13.232 0-24-10.768-24-24v-48c0-13.232 10.768-24 24-24h8c13.232 0 24 10.768 24 24v48c0 13.232-10.768 24-24 24z m-8-80a8 8 0 0 0-8 8v48a8 8 0 0 0 8 8h8a8 8 0 0 0 8-8v-48a8 8 0 0 0-8-8H816z" fill="#263238" /><path d="M784 536h-8c-13.232 0-24-10.768-24-24v-48c0-13.232 10.768-24 24-24h8c13.232 0 24 10.768 24 24v48c0 13.232-10.768 24-24 24z m-8-80a8 8 0 0 0-8 8v48a8 8 0 0 0 8 8h8a8 8 0 0 0 8-8v-48a8 8 0 0 0-8-8h-8z" fill="#263238" /><path d="M744 536H736c-13.232 0-24-10.768-24-24v-48c0-13.232 10.768-24 24-24h8c13.232 0 24 10.768 24 24v48c0 13.232-10.768 24-24 24z m-8-80a8 8 0 0 0-8 8v48a8 8 0 0 0 8 8h8a8 8 0 0 0 8-8v-48a8 8 0 0 0-8-8H736zM800 616a8 8 0 0 1 0-16c17.648 0 32-14.352 32-32V528a8 8 0 0 1 16 0v40c0 26.464-21.536 48-48 48zM720 616c-26.464 0-48-21.536-48-48v-20a8 8 0 0 1 16 0v20c0 17.648 14.352 32 32 32a8 8 0 0 1 0 16z" fill="#263238" /><path d="M720 536a8 8 0 0 1-8-8v-144a8 8 0 0 0-8-8h-8a8 8 0 0 0-8 8v124a8 8 0 0 1-16 0V384c0-13.232 10.768-24 24-24h8c13.232 0 24 10.768 24 24v144a8 8 0 0 1-8 8zM512.128 1000c-0.224 0-0.464 0-0.688-0.032a8 8 0 0 1-7.28-8.656l31.584-366.992a8.048 8.048 0 0 1 11.12-6.672l152.336 65.28a8 8 0 0 1-6.304 14.704l-142.16-60.928-30.624 355.968a8.048 8.048 0 0 1-7.984 7.328z" fill="#263238" /><path d="M897.376 192a80.096 80.096 0 0 0-97.328-78.176c-30.528 6.4-54.992 31.328-61.056 61.92a79.2 79.2 0 0 0 19.424 69.952c11.6 12.576 18.96 28.448 18.96 45.568v4.736h80v-4.72c0-17.2 7.52-33.088 19.136-45.776A78.912 78.912 0 0 0 897.376 192z" fill="#FFD740" /><path d="M857.376 304h-80a8 8 0 0 1-8-8v-4.752c0-14.096-5.984-28.352-16.848-40.144-19.168-20.768-26.976-48.816-21.376-76.928 6.688-33.744 33.712-61.152 67.264-68.176a88.432 88.432 0 0 1 74.384 17.664A87.68 87.68 0 0 1 905.36 192c0 21.824-8.16 42.736-22.976 58.896-7.76 8.496-17.024 22.384-17.024 40.368v4.736a7.984 7.984 0 0 1-7.984 8z m-72.08-16h64.16c0.864-16.96 8.304-33.84 21.152-47.904A70.992 70.992 0 0 0 889.376 192a71.808 71.808 0 0 0-26.64-55.936 72.576 72.576 0 0 0-61.024-14.416c-27.36 5.728-49.392 28.096-54.864 55.648-4.576 23.04 1.776 45.984 17.456 62.96 12.768 13.872 20.144 30.72 20.992 47.744z" fill="#263238" /><path d="M817.376 384c-26.464 0-48-21.536-48-48v-40a8 8 0 0 1 8-8h80a8 8 0 0 1 8 8V336c0 26.464-21.536 48-48 48z m-32-80v32c0 17.648 14.352 32 32 32s32-14.352 32-32v-32h-64z" fill="#263238" /><path d="M857.376 344h-80a8 8 0 0 1 0-16h80a8 8 0 0 1 0 16z" fill="#263238" /><path d="M817.376 72a8 8 0 0 1-8-8V32a8 8 0 0 1 16 0v32a8 8 0 0 1-8 8z" fill="#263238" /><path d="M737.376 99.312a8.032 8.032 0 0 1-5.664-2.336l-22.624-22.624a8 8 0 0 1 11.312-11.312l22.624 22.624a8 8 0 0 1-5.648 13.648z" fill="#263238" /><path d="M897.376 99.312a8 8 0 0 1-5.664-13.648l22.624-22.624a8 8 0 0 1 11.312 11.312l-22.624 22.624a7.968 7.968 0 0 1-5.648 2.336z" fill="#f2f4f5" /><path d="M817.376 304a8 8 0 0 1-8-8v-80a8 8 0 0 1 16 0v80a8 8 0 0 1-8 8z" fill="#263238" /></svg>