<svg width="24" height="24" viewBox="0 0 24 24" fill="none" xmlns="http://www.w3.org/2000/svg">
<path d="M6.77997 4.78C6.91245 4.63782 6.98457 4.44978 6.98115 4.25548C6.97772 4.06118 6.89901 3.87579 6.76159 3.73838C6.62418 3.60096 6.43879 3.52225 6.24449 3.51882C6.05019 3.5154 5.86215 3.58752 5.71997 3.72L3.74997 5.69L3.27997 5.22C3.1378 5.08752 2.94975 5.0154 2.75545 5.01882C2.56115 5.02225 2.37576 5.10096 2.23835 5.23838C2.10094 5.37579 2.02222 5.56118 2.0188 5.75548C2.01537 5.94978 2.08749 6.13782 2.21997 6.28L3.21997 7.28C3.3606 7.42045 3.55122 7.49934 3.74997 7.49934C3.94872 7.49934 4.13935 7.42045 4.27997 7.28L6.77997 4.78ZM21.25 18.007H9.74997L9.64797 18.014C9.45972 18.0399 9.28832 18.1363 9.1684 18.2837C9.04849 18.4311 8.98899 18.6185 9.00194 18.8081C9.0149 18.9977 9.09933 19.1753 9.23818 19.305C9.37703 19.4348 9.55995 19.5069 9.74997 19.507H21.25L21.352 19.5C21.5402 19.4741 21.7116 19.3777 21.8315 19.2303C21.9515 19.0829 22.011 18.8955 21.998 18.7059C21.985 18.5163 21.9006 18.3387 21.7618 18.209C21.6229 18.0792 21.44 18.0071 21.25 18.007ZM21.25 11.5H9.74997L9.64797 11.507C9.45972 11.5329 9.28832 11.6293 9.1684 11.7767C9.04849 11.9241 8.98899 12.1115 9.00194 12.3011C9.0149 12.4907 9.09933 12.6683 9.23818 12.798C9.37703 12.9278 9.55995 12.9999 9.74997 13H21.25L21.352 12.993C21.5402 12.9671 21.7116 12.8707 21.8315 12.7233C21.9515 12.5759 22.011 12.3885 21.998 12.1989C21.985 12.0093 21.9006 11.8317 21.7618 11.702C21.6229 11.5722 21.44 11.5001 21.25 11.5ZM21.25 5H9.74997L9.64797 5.007C9.45972 5.0329 9.28832 5.12929 9.1684 5.2767C9.04849 5.42411 8.98899 5.61154 9.00194 5.80112C9.0149 5.9907 9.09933 6.1683 9.23818 6.29803C9.37703 6.42775 9.55995 6.49994 9.74997 6.5H21.25L21.352 6.493C21.5402 6.4671 21.7116 6.3707 21.8315 6.2233C21.9515 6.07589 22.011 5.88846 21.998 5.69888C21.985 5.5093 21.9006 5.3317 21.7618 5.20197C21.6229 5.07224 21.44 5.00006 21.25 5ZM6.77997 17.78C6.85366 17.7113 6.91276 17.6285 6.95375 17.5365C6.99474 17.4445 7.01679 17.3452 7.01856 17.2445C7.02034 17.1438 7.00181 17.0438 6.96409 16.9504C6.92637 16.857 6.87023 16.7722 6.79901 16.701C6.72779 16.6297 6.64296 16.5736 6.54957 16.5359C6.45618 16.4982 6.35615 16.4796 6.25545 16.4814C6.15475 16.4832 6.05543 16.5052 5.96343 16.5462C5.87143 16.5872 5.78863 16.6463 5.71997 16.72L3.74997 18.69L3.27997 18.22C3.1378 18.0875 2.94975 18.0154 2.75545 18.0188C2.56115 18.0223 2.37576 18.101 2.23835 18.2384C2.10094 18.3758 2.02222 18.5612 2.0188 18.7555C2.01537 18.9498 2.08749 19.1378 2.21997 19.28L3.21997 20.28C3.3606 20.4205 3.55122 20.4993 3.74997 20.4993C3.94872 20.4993 4.13935 20.4205 4.27997 20.28L6.77997 17.78ZM6.77997 10.22C6.92042 10.3606 6.99931 10.5512 6.99931 10.75C6.99931 10.9487 6.92042 11.1394 6.77997 11.28L4.27997 13.78C4.13935 13.9204 3.94872 13.9993 3.74997 13.9993C3.55122 13.9993 3.3606 13.9204 3.21997 13.78L2.21997 12.78C2.14628 12.7113 2.08718 12.6285 2.04619 12.5365C2.0052 12.4445 1.98316 12.3452 1.98138 12.2445C1.9796 12.1438 1.99813 12.0438 2.03585 11.9504C2.07357 11.857 2.12971 11.7722 2.20093 11.701C2.27215 11.6297 2.35698 11.5736 2.45037 11.5359C2.54376 11.4982 2.64379 11.4796 2.74449 11.4814C2.8452 11.4832 2.94451 11.5052 3.03651 11.5462C3.12851 11.5872 3.21131 11.6463 3.27997 11.72L3.74997 12.19L5.71997 10.22C5.8606 10.0795 6.05122 10.0007 6.24997 10.0007C6.44872 10.0007 6.63935 10.0795 6.77997 10.22Z" fill="white"/>
</svg>
