<svg class="svg-icon" style="width: 1em; height: 1em;vertical-align: middle;fill: currentColor;overflow: hidden;" viewBox="0 0 1024 1024" version="1.1" xmlns="http://www.w3.org/2000/svg"><path d="M432.355556 509.155556L358.4 682.666667l107.140741 33.185185L521.481481 536.651852z" fill="#1E2D4F" /><path d="M610.607407 564.148148L521.481481 536.651852l-55.94074 179.2L572.681481 749.037037zM327.528296 690.564741l4.769185-15.397926 133.157926 41.187555-4.759703 15.397926z" fill="#2D4375" /><path d="M461.312 731.477333l4.769185-15.397926 133.138963 41.197037-4.759704 15.397926z" fill="#1E2D4F" /><path d="M865.659259 356.503704L602.074074 274.962963 482.607407 660.859259l263.585186 81.540741c14.222222 4.740741 29.392593-3.792593 34.133333-18.014815l8.533333-28.444444 85.333334-276.85926 8.533333-28.444444c5.688889-14.222222-2.844444-29.392593-17.066667-34.133333z" fill="#1E2D4F" /><path d="M338.488889 193.422222c-14.222222-4.740741-29.392593 3.792593-34.133333 18.014815l-8.533334 28.444444-85.333333 276.85926-8.533333 28.444444c-4.740741 14.222222 3.792593 29.392593 18.014814 34.133334L483.555556 660.859259 602.074074 274.962963l-263.585185-81.540741z" fill="#2D4375" /><path d="M340.385185 224.711111c-8.533333-2.844444-18.014815 1.896296-20.859259 10.42963L252.207407 455.111111l80.592593-34.133333 78.696296 61.629629 142.222223-53.096296 38.874074-127.051852-252.207408-77.748148z" fill="#62C3ED" /><path d="M846.696296 381.155556l-253.155555-78.696297-38.874074 127.051852 9.481481-3.792592 101.451852 59.733333s151.703704-54.992593 187.733333-69.214815l4.740741-15.17037c1.896296-8.533333-2.844444-17.066667-11.377778-19.911111z" fill="#2A9ED1" /><path d="M412.444444 483.555556l-78.696296-61.62963-81.540741 33.185185-18.014814 58.785185c-2.844444 8.533333 1.896296 18.014815 10.429629 20.85926l253.155556 78.696296 56.888889-183.940741-142.222223 54.044445z" fill="#62C3ED" /><path d="M665.6 485.451852l-101.451852-59.733333-9.481481 3.792592-56.888889 183.940741L750.933333 692.148148c8.533333 2.844444 18.014815-1.896296 20.85926-10.429629l81.54074-265.481482c-36.02963 14.222222-184.888889 71.111111-187.733333 69.214815z" fill="#2A9ED1" /><path d="M660.059904 499.567361a17.066667 17.066667 0 1 0 10.090087-32.607892 17.066667 17.066667 0 1 0-10.090087 32.607892Z" fill="#FFFBE0" /><path d="M561.096403 444.905451a17.066667 17.066667 0 1 0 10.093501-32.606834 17.066667 17.066667 0 1 0-10.093501 32.606834Z" fill="#FFFBE0" /><path d="M406.138817 497.634289a17.066667 17.066667 0 1 0 10.090087-32.607892 17.066667 17.066667 0 1 0-10.090087 32.607892Z" fill="#FFFBE0" /><path d="M325.389806 452.802312a24.651852 24.651852 0 1 0 14.579502-47.098761 24.651852 24.651852 0 1 0-14.579502 47.098761Z" fill="#FFFBE0" /><path d="M666.548148 478.814815l-99.555555-58.785185c-1.896296-0.948148-3.792593-0.948148-5.688889-0.948149l-148.85926 55.940741-75.851851-58.785185c-1.896296-1.896296-4.740741-1.896296-6.637037-0.948148l-75.851852 30.340741-2.844445 9.481481-1.896296 5.688889h3.792593l77.748148-31.288889 75.851852 58.785185c1.896296 0.948148 3.792593 1.896296 6.637037 0.948148l149.807407-55.94074 97.659259 57.837037c3.792593 2.844444 5.688889 3.792593 187.733334-64.474074l4.74074-16.118519c-73.955556 28.444444-170.666667 63.525926-186.785185 68.266667z" fill="#FFFBE0" /><path d="M338.488889 416.237037c-2.844444-1.896296-5.688889-1.896296-8.533333-0.948148l-86.281482 35.081481-6.637037 20.85926 94.814815-37.925926 39.822222 31.288889 5.688889-17.066667-38.874074-31.288889zM666.548148 478.814815l-99.555555-58.785185c-1.896296-0.948148-3.792593-0.948148-5.688889-0.948149L443.733333 464.592593l-4.74074 16.118518 125.155555-46.459259 97.659259 57.837037c3.792593 2.844444 5.688889 3.792593 187.733334-64.474074l4.74074-16.118519C779.377778 438.992593 682.666667 474.074074 666.548148 478.814815z" fill="#FFFBE0" /><path d="M212.385185 338.488889c-4.740741-5.688889-4.740741-13.274074 0.948148-18.962963 5.688889-4.740741 13.274074-4.740741 18.962963 0.948148l25.6 26.548148c4.740741 5.688889 4.740741 13.274074-0.948148 18.962963-5.688889 4.740741-13.274074 4.740741-18.962963-0.948148l-25.6-26.548148z" fill="#2D4375" /><path d="M140.325926 284.444444c-10.42963-11.377778-8.533333-29.392593 2.844444-40.77037 12.325926-11.377778 30.340741-11.377778 40.770371 0l45.511111 48.355556c10.42963 11.377778 8.533333 29.392593-2.844445 40.77037-12.325926 11.377778-30.340741 11.377778-40.77037 0L140.325926 284.444444z" fill="#2D4375" /><path d="M414.340741 422.874074c1.896296-54.992593-41.718519-101.451852-96.711111-103.348148-54.992593-1.896296-101.451852 41.718519-103.348149 96.711111-1.896296 54.992593 41.718519 101.451852 96.711112 103.348148 55.940741 1.896296 102.4-41.718519 103.348148-96.711111zM250.311111 417.185185c0.948148-35.081481 31.288889-63.525926 66.37037-62.577778 36.02963 0.948148 63.525926 31.288889 62.577778 66.370371-0.948148 35.081481-31.288889 63.525926-66.37037 62.577778-36.02963-0.948148-63.525926-31.288889-62.577778-66.370371z" fill="#F12A3F" /></svg>