<svg width="18" height="18" viewBox="0 0 18 18" fill="none" xmlns="http://www.w3.org/2000/svg">
<path d="M12.75 2.25H3.75C3.35218 2.25 2.97064 2.40804 2.68934 2.68934C2.40804 2.97064 2.25 3.35218 2.25 3.75V14.25C2.25 14.6478 2.40804 15.0294 2.68934 15.3107C2.97064 15.592 3.35218 15.75 3.75 15.75H14.25C15.075 15.75 15.75 15.075 15.75 14.25V5.25L12.75 2.25ZM14.25 14.25H3.75V3.75H12.1275L14.25 5.8725V14.25ZM9 9C7.755 9 6.75 10.005 6.75 11.25C6.75 12.495 7.755 13.5 9 13.5C10.245 13.5 11.25 12.495 11.25 11.25C11.25 10.005 10.245 9 9 9ZM4.5 4.5H11.25V7.5H4.5V4.5Z" fill="white"/>
</svg>
