<svg width="24" height="26" viewBox="0 0 24 26" fill="none" xmlns="http://www.w3.org/2000/svg">
<g clip-path="url(#clip0)">
<path d="M19.9063 0H4.24107C3.88095 0 3.57403 0.0818452 3.32031 0.245536C3.06659 0.409226 2.88653 0.609747 2.78013 0.847098C2.67374 1.08445 2.62054 1.34226 2.62054 1.62054V4.73884H1.76116C1.54836 4.73884 1.3683 4.81659 1.22098 4.9721C1.07366 5.1276 1 5.31176 1 5.52455C1 5.65551 1.03274 5.78237 1.09821 5.90513C1.16369 6.0279 1.25781 6.12202 1.38058 6.1875C1.50335 6.25298 1.63021 6.28571 1.76116 6.28571H2.62054V9.45313H1.83482C1.70387 9.45313 1.57701 9.48586 1.45424 9.55134C1.33147 9.61682 1.23735 9.71094 1.17188 9.83371C1.1064 9.95647 1.07366 10.0833 1.07366 10.2143C1.07366 10.4271 1.14732 10.6071 1.29464 10.7545C1.44196 10.9018 1.62202 10.9754 1.83482 10.9754H2.62054V14.1674H1.81027C1.71205 14.1674 1.61793 14.1879 1.5279 14.2288C1.43787 14.2697 1.35603 14.3229 1.28237 14.3884C1.20871 14.4539 1.15141 14.5357 1.11049 14.6339C1.06957 14.7321 1.04911 14.8304 1.04911 14.9286C1.04911 15.1414 1.12686 15.3255 1.28237 15.481C1.43787 15.6365 1.61384 15.7143 1.81027 15.7143H2.62054V18.8571H1.81027C1.74479 18.8571 1.67932 18.8653 1.61384 18.8817C1.54836 18.8981 1.48698 18.9226 1.42969 18.9554C1.3724 18.9881 1.3192 19.029 1.27009 19.0781C1.22098 19.1272 1.18006 19.1804 1.14732 19.2377C1.11458 19.295 1.09003 19.3564 1.07366 19.4219C1.05729 19.4874 1.04911 19.5528 1.04911 19.6183C1.04911 19.8311 1.12686 20.0153 1.28237 20.1708C1.43787 20.3263 1.61384 20.404 1.81027 20.404H2.62054V23.5714C2.62054 24.1443 2.78832 24.5495 3.12388 24.7868C3.45945 25.0242 3.82366 25.1429 4.21652 25.1429H19.9063C20.561 25.1429 21.1176 24.9137 21.5759 24.4554C22.0342 23.997 22.2634 23.4405 22.2634 22.7857V2.35714C22.2634 1.70238 22.0342 1.14583 21.5759 0.6875C21.1176 0.229167 20.561 0 19.9063 0ZM4.19196 23.5714V20.404H5.00223C5.21503 20.404 5.39918 20.3263 5.55469 20.1708C5.71019 20.0153 5.78795 19.8311 5.78795 19.6183C5.78795 19.5201 5.76749 19.4219 5.72656 19.3237C5.68564 19.2254 5.62835 19.1436 5.55469 19.0781C5.48103 19.0126 5.39918 18.9595 5.30915 18.9185C5.21912 18.8776 5.11682 18.8571 5.00223 18.8571H4.19196V15.7143H5.00223C5.14955 15.7143 5.28051 15.6775 5.39509 15.6038C5.50967 15.5301 5.60379 15.436 5.67746 15.3214C5.75112 15.2068 5.78795 15.0759 5.78795 14.9286C5.78795 14.7158 5.71019 14.5357 5.55469 14.3884C5.39918 14.2411 5.21503 14.1674 5.00223 14.1674H4.19196V10.9754H5.02679C5.17411 10.9754 5.30506 10.9427 5.41964 10.8772C5.53423 10.8118 5.62426 10.7217 5.68973 10.6071C5.75521 10.4926 5.78795 10.3616 5.78795 10.2143C5.78795 10.1161 5.77158 10.0179 5.73884 9.91964C5.7061 9.82143 5.6529 9.73958 5.57924 9.67411C5.50558 9.60863 5.42374 9.55543 5.33371 9.51451C5.24368 9.47359 5.14137 9.45313 5.02679 9.45313H4.19196V6.28571H4.95313C5.16592 6.28571 5.34598 6.21205 5.4933 6.06473C5.64063 5.91741 5.71429 5.73735 5.71429 5.52455C5.71429 5.31176 5.64063 5.1276 5.4933 4.9721C5.34598 4.81659 5.16592 4.73884 4.95313 4.73884H4.19196V1.57143H16.7634V23.5714H4.19196ZM20.692 22.7857C20.692 22.9985 20.6142 23.1827 20.4587 23.3382C20.3032 23.4937 20.119 23.5714 19.9063 23.5714H18.3348V1.57143H19.9063C20.119 1.57143 20.3032 1.64918 20.4587 1.80469C20.6142 1.96019 20.692 2.14435 20.692 2.35714V22.7857Z" fill="white"/>
</g>
<defs>
<clipPath id="clip0">
<rect width="24" height="25.1429" fill="white"/>
</clipPath>
</defs>
</svg>
