<svg class="svg-icon" style="width: 1em;height: 1em;vertical-align: middle;fill: currentColor;overflow: hidden;" viewBox="0 0 1024 1024" version="1.1" xmlns="http://www.w3.org/2000/svg"><path d="M1024 512c0 282.767-229.242 512-512 512C229.233 1024 0 794.767 0 512S229.233 0 512 0c282.758 0 512 229.233 512 512z" fill="#EEF5FF" /><path d="M197 760.979l292.014-168.58V180.911L197 349.523z" fill="#33A272" /><path d="M293.697 392.237l-78.002-45.04 264.643-152.821 77.971 45.065z" fill="#F7F7F7" /><path d="M186.727 343.572l290.912-167.866 11.375 5.197L208.92 342.655l75.66 43.547 278.975-161.024 11.355 5.221-291.959 168.587z" fill="#66B995" /><path d="M186.727 755.062l96.224 55.406V398.986l-96.224-55.414z" fill="#008B4F" /><path d="M282.951 810.468L574.91 641.871V230.399L282.951 398.986z" fill="#33A272" /><path d="M218.385 676.738l6.152 3.544V439.631l-6.152-3.547zM232.99 612.698l6.153 3.544V447.79l-6.153-3.545zM230.365 743.527c5.496 3.171 9.938 10.865 9.92 17.182s-4.486 8.861-9.984 5.688c-5.494-3.172-9.939-10.866-9.922-17.183 0.019-6.315 4.492-8.86 9.986-5.687z m-0.058 20.502c4.361 2.519 7.906 0.5 7.922-4.511 0.014-5.011-3.51-11.109-7.871-13.627-4.357-2.517-7.902-0.498-7.916 4.514-0.014 5.009 3.509 11.109 7.865 13.624" fill="#FFFFFF" /><path d="M301.154 823.065l326.633-188.632V87.561L301.154 276.185z" fill="#00346D" /><path d="M409.277 323.967l-87.256-50.381 296.088-170.964 87.291 50.389z" fill="#F7F7F7" /><path d="M289.643 816.461l107.648 61.968v-546.88l-107.648-62.003z" fill="#00529F" /><path d="M397.291 878.429l326.65-188.65V142.916l-326.65 188.633z" fill="#00346D" /><path d="M317.939 710.287l6.157 3.545V400.98l-6.157-3.545zM332.545 575.492l6.156 3.543V409.141l-6.156-3.547zM346.809 610.401l6.152 3.544V416.613l-6.152-3.546zM334.252 794.402c5.496 3.174 9.939 10.867 9.922 17.185-0.02 6.315-4.492 8.861-9.986 5.688-5.492-3.174-9.938-10.865-9.92-17.182 0.017-6.318 4.49-8.864 9.984-5.691z m-0.059 20.506c4.361 2.517 7.908 0.497 7.922-4.513s-3.51-11.109-7.871-13.627c-4.357-2.516-7.902-0.498-7.918 4.513-0.013 5.01 3.51 11.111 7.867 13.627" fill="#FFFFFF" /><path d="M289.643 269.546L615.068 81.72l12.719 5.841L314.43 268.483l84.627 48.759 312.115-180.176 12.769 5.85-326.65 188.633z" fill="#6697C6" /><path d="M416.627 886.934l326.652-188.65V237.926L416.627 426.551z" fill="#46ABFF" /><path d="M524.789 474.341l-87.207-50.398 296.086-170.947 87.24 50.37z" fill="#F7F7F7" /><path d="M405.152 880.295L512.82 942.28V481.871l-107.668-61.959z" fill="#46ABFF" /><path d="M512.82 942.28l326.664-188.632V293.272L512.82 481.871z" fill="#1F95FF" /><path d="M437.957 658.186l6.152 3.542V522.156l-6.152-3.546zM452.561 796.304l6.15 3.544V530.316l-6.15-3.545zM449.936 869.372c5.492 3.173 9.938 10.866 9.92 17.182-0.018 6.318-4.49 8.862-9.984 5.689s-9.936-10.865-9.918-17.183c0.017-6.315 4.485-8.861 9.982-5.688z m-0.059 20.504c4.357 2.518 7.908 0.498 7.922-4.511 0.014-5.01-3.512-11.111-7.871-13.628-4.361-2.516-7.902-0.497-7.916 4.513s3.506 11.11 7.865 13.626" fill="#FFFFFF" /><path d="M405.152 419.912l325.411-187.836 12.716 5.85-313.338 180.907 84.637 48.725 312.154-180.124 12.752 5.838L512.82 481.871z" fill="#76CCF3" /></svg>