<svg class="svg-icon" style="width: 1em;height: 1em;vertical-align: middle;fill: currentColor;overflow: hidden;" viewBox="0 0 1024 1024" version="1.1" xmlns="http://www.w3.org/2000/svg"><path d="M480.02 1020c0-102.064 59.224-184.8 132.276-184.8 73.052 0 132.272 82.74 132.272 184.8" fill="#F8A4A7" /><path d="M762.58 1020h-36c0-91.972-51.264-166.8-114.276-166.8s-114.276 74.828-114.276 166.8h-36c0-111.824 67.416-202.8 150.276-202.8 82.856 0 150.276 90.976 150.276 202.8z" fill="#6E6E96" /><path d="M215.572 1020c0-102.064 59.224-184.8 132.28-184.8 73.052 0 132.28 82.74 132.28 184.8" fill="#F8A4A7" /><path d="M498.132 1020h-36c0-91.972-51.264-166.8-114.28-166.8s-114.28 74.828-114.28 166.8h-36c0-111.824 67.416-202.8 150.28-202.8s150.28 90.976 150.28 202.8z" fill="#6E6E96" /><path d="M538 1020s-11.08-60 62.46-70S670 1020 670 1020h56.58s19.836-103.08-47.224-134.936c0 0-111.448 46.936-183.404 46.936l-9.384 88H538zM389.792 1020s11.08-60-62.46-70S257.792 1020 257.792 1020h-28.576s-19.84-103.08 47.22-134.936c0 0 111.448 46.936 183.404 46.936l9.384 88H389.792z" fill="#6E6E96" opacity=".2" /><path d="M123.084 419.936S36.38 533.32 74.188 731.66L264 685.916l-44.428-238.092-96.488-27.888z" fill="#B4B7C9" /><path d="M60.048 753.584l-3.536-18.56c-38.868-203.912 48.536-321.14 52.276-326.032l7.476-9.776 118.968 34.388 49.596 265.8-224.78 54.18z m70.82-312.664c-17.816 29.748-64.512 124.336-42.208 268.736l154.512-37.244-39.256-210.384-73.048-21.108z" fill="#6E6E96" /><path d="M285.232 818.944c31.924 12.896-37.504 52.556-78.984 54.14-75.544 2.904-138.256-60.416-140.056-141.428-1.808-81.028 41.184-70.52 116.736-73.416-0.004 0.008 15.532 125.652 102.304 160.704z" fill="#F8A4A7" /><path d="M201.26 891.188c-83.848 0-151.084-69.9-153.068-159.124-0.728-32.656 5.416-54.616 19.328-69.088 20.04-20.856 50.436-21.396 88.916-22.068 8.248-0.148 16.772-0.296 25.804-0.64l16.52-0.628 2.028 16.412c0.144 1.128 15.424 115.604 91.184 146.212 16.732 6.76 20.784 20.092 19 30.32-5.536 31.704-71.7 57.26-104.036 58.508a192.56 192.56 0 0 1-5.676 0.096z m-33.392-214.492c-3.668 0.08-7.26 0.14-10.8 0.204-30.12 0.532-53.916 0.944-63.588 11.016-6.748 7.024-9.788 21.204-9.292 43.344 1.58 71.036 55.276 126.312 121.368 123.844 21.768-0.828 50.332-13.876 63.592-23.644-69.496-34.272-93.888-118.952-101.28-154.764z" fill="#6E6E96" /><path d="M244 312c-52.244-20-103.108 35.12-117.128 65.128-31.732 67.932-0.612 146.332 69.496 175.104l101.008-212.904L244 312" fill="#F8A4A7" /><path d="M205.316 575.364l-15.784-6.472c-38.764-15.916-68.288-45.616-83.132-83.652-14.648-37.52-13.168-78.62 4.164-115.732 15.476-33.128 59.992-79.78 110.496-79.78 10.028 0 19.916 1.836 29.376 5.46l1.768 0.788 68.92 35.288-115.808 244.1z m15.744-249.632c-35.116 0-68.568 39.08-77.88 59.016-13.128 28.1-14.28 59.144-3.248 87.404 9.204 23.584 25.964 42.972 47.992 55.88l85.7-180.64-36.9-18.896a46.016 46.016 0 0 0-15.664-2.764z" fill="#6E6E96" /><path d="M760.332 553.4c20.06 190.384-22.416 350.908-247.504 374.62-289.096 30.46-335.564-119.584-349.66-253.396C144.976 501.996 251.32 249.648 434 230.4s306.272 132.612 326.332 323z" fill="#B4B7C9" /><path d="M441.512 950c-107.96 0-184.176-29.316-233.012-89.628-44.692-55.196-57.268-127.252-63.232-183.864-9.536-90.508 14.284-201.66 62.164-290.084 55.64-102.752 135.432-164.516 224.684-173.92a314.32 314.32 0 0 1 32.816-1.748c84.252 0 159.064 35.016 216.34 101.26 52.672 60.916 87.108 145.972 96.96 239.496 11.74 111.388 0.648 196.524-33.9 260.268-41.92 77.376-119.18 122.508-229.624 134.14-25.7 2.708-50.324 4.08-73.196 4.08z m23.416-703.248c-9.516 0-19.288 0.52-29.044 1.548-77.092 8.124-146.984 63.264-196.8 155.264-44.6 82.372-66.832 185.504-58.02 269.168 13.2 125.304 53.892 241.26 260.444 241.26 21.616 0 44.976-1.304 69.428-3.888 99.316-10.456 165.308-48.24 201.744-115.48 30.964-57.144 40.696-135.436 29.752-239.356-9.088-86.28-40.484-164.312-88.396-219.72-50.232-58.088-115.62-88.796-189.108-88.796zM873.836 357.332a18.004 18.004 0 0 1-18-18l0.008-6.56c0.092-56.804 0.28-162.532-63.02-213.572-39.604-31.936-100.364-39.232-180.576-21.676a17.984 17.984 0 0 1-21.428-13.736 18.004 18.004 0 0 1 13.744-21.432c91.392-20.004 162.336-10.3 210.86 28.82 76.74 61.872 76.532 178.828 76.42 241.66l-0.008 6.5a18 18 0 0 1-18 17.996z" fill="#6E6E96" /><path d="M760.332 553.4C740.272 363.012 616.68 211.152 434 230.4s-289.024 271.596-270.836 444.216c14.1 133.812 60.564 283.86 349.66 253.4 225.092-23.712 267.568-184.236 247.508-374.616zM622 685.916c-1.92 3.532-4.864 8.24-8.772 13.72a37.996 37.996 0 0 0-67.228 24.28c0 3 0.384 5.912 1.048 8.716-20.02 4.232-35.048 21.98-35.048 43.26 0 2.852 0.356 5.616 0.884 8.316-0.484 0.24-0.98 0.468-1.464 0.7a28.448 28.448 0 0 0-14.132-3.804 28.704 28.704 0 0 0-27.148 19.416c-48.356 13.48-107.644 13.892-177.308-13.564-196.168-77.3-57.596-353.348-57.596-353.348 147.18 75.404 355.168-1.064 355.168-1.064 10.672 49.932 49.6 114.86 49.6 114.86s39.352 32.972-18.004 138.512z" fill="#6E6E96" opacity=".2" /><path d="M474.348 703.08m-23.78 0a23.78 23.78 0 1 0 47.56 0 23.78 23.78 0 1 0-47.56 0Z" fill="#6E6E96" opacity=".2" /><path d="M535 654.28m-9 0a9 9 0 1 0 18 0 9 9 0 1 0-18 0Z" fill="#6E6E96" opacity=".2" /><path d="M700.452 669.244l226.984 16.672s21.46-171.172-29.928-270.784l-197.056 120.044c0-0.008 12.184 63.288 0 134.068z" fill="#B4B7C9" /><path d="M943.176 705.116l-263.82-19.384 3.364-19.552c11.484-66.768 0.18-127.02 0.064-127.62l-2.36-12.264 224.228-136.6 8.86 17.172c53.336 103.384 32.704 274.072 31.796 281.28l-2.132 16.968z m-222.144-52.412l190.196 13.972c3.4-41.432 8.5-149.704-21.7-225.612l-169.432 103.216c2.668 19.904 6.512 61.232 0.936 108.424z" fill="#6E6E96" /><path d="M738.876 269.88c55.296 5.532 120.308 41.744 144.632 91.088 36.12 73.296-0.056 158.484-80.796 190.28-80.74 31.776-119.244-24.008-155.364-97.308-15.112-30.668-27.416-59.548-30.696-85.088" fill="#F8A4A7" /><path d="M675.08 468.504s-17.928-97.844 69.492-111.172c87.424-13.328 143.28 143.444 32.352 183.06 0 0 139.06-27.556 96.068-157.976s-127.312-110.22-147.516-74.684L622 374l53.08 94.504z" fill="#6E6E96" opacity=".2" /><path d="M759.084 578.54c-64.048 0.008-99.4-58.832-127.884-116.64-13.88-28.164-28.584-60.968-32.408-90.752l35.712-4.584c3.148 24.54 16.416 53.92 28.984 79.42 38.52 78.172 69.632 113.32 132.624 88.508 35.984-14.168 62.864-40.244 75.688-73.416 11.616-30.044 10.04-62.776-4.44-92.16-22.096-44.836-83.596-76.464-130.276-81.136l3.584-35.82c57.076 5.712 130.004 42.248 158.984 101.04 18.984 38.52 21.02 81.508 5.732 121.056-16.248 42.052-51.272 76.288-96.08 93.932-18.512 7.292-35.168 10.548-50.22 10.552z" fill="#6E6E96" /><path d="M946.824 744.444c-2.5 87.752-74.912 156.9-161.74 154.416-86.82-2.464-107.852-74.26-105.36-162.016 2.492-87.76 25.156-73.74 111.992-71.26 86.84 2.464 157.6-8.916 155.108 78.86z" fill="#F8A4A7" /><path d="M735.188 837.652s-44.82-117.82 44.996-151.74l-78.76-22.632c-0.004 0-61.048 138.02 33.764 174.372z" fill="#FFFFFF" opacity=".3" /><path d="M789.608 916.928c-1.68 0-3.344-0.024-5.032-0.076-84.844-2.412-126.172-63.148-122.844-180.52 1.06-37.28 5.628-57.176 16.304-70.944 13.704-17.68 34.36-20.108 54.636-20.108 8.768 0 18.46 0.484 29.684 1.048 8.892 0.444 18.956 0.952 29.868 1.264a1586.8 1586.8 0 0 0 30.264 0.476c50.756 0.472 94.6 0.884 120.972 28.26 15.228 15.812 22.212 38.26 21.348 68.624-2.736 96.448-79.7 171.976-175.2 171.976zM732.68 681.28c-26.296 0-33.368 0-34.96 56.084-2.756 97.444 24.344 141.708 87.884 143.512 77.632 2.228 141.008-58.764 143.236-136.936 0.58-20.196-3.116-34.136-11.296-42.624-15.888-16.496-52.724-16.84-95.376-17.244a1584.984 1584.984 0 0 1-30.952-0.492c-11.296-0.32-21.584-0.836-30.648-1.288-10.748-0.54-20.02-1.012-27.888-1.012z" fill="#6E6E96" /><path d="M738.876 269.88c-24.748-148.272-159.928-249.264-301.956-225.564-142.024 23.7-237.096 163.108-212.356 311.38 0 0 45.52 90.732 250.456 56.532 244.348-40.772 263.856-142.348 263.856-142.348z" fill="#B4B7C9" /><path d="M535 89.916S272.408 0 324.34 384.012c0 0-64.144-7.844-83.712-33.064 0 0-25.056-146.164 79.712-230.392C349.76 96.904 384 57.048 436.112 63.508c20.924 2.596 42.276-4.64 98.888 26.408z" fill="#FFFFFF" opacity=".4" /><path d="M320.336 199.028h36v65.884h-36zM446.568 199.028h36v65.884h-36z" fill="#6E6E96" /><path d="M389.128 437.932h-0.028C247.344 437.924 210 366.8 208.48 363.772l-1.22-2.432-0.448-2.684C180.476 200.832 282.372 51.852 433.96 26.56a270.64 270.64 0 0 1 44.432-3.696c65.708 0 129.972 24.424 180.94 68.776 51.336 44.676 85.896 106.92 97.3 175.272l0.532 3.184-0.608 3.172c-0.892 4.652-24.78 114.364-278.568 156.712-31.616 5.28-61.512 7.952-88.86 7.952zM241.796 349.48c6.412 9.652 40.856 52.448 147.304 52.452 25.384-0.14 53.288-2.504 82.956-7.456 204.94-34.196 242.98-111.096 248.364-125.612-10.688-58.564-40.672-111.728-84.732-150.064-44.416-38.648-100.276-59.932-157.308-59.932a234.8 234.8 0 0 0-38.508 3.204C308.916 83.924 220.648 212.452 241.796 349.48z" fill="#6E6E96" /><path d="M842 685.916s60.48 1.524 39.244 79.804c-21.244 78.28-170.328 110.32-180.788 29.3 0 0-11.144 134.364 155.548 90.98 145.996-38 93.996-246.176-14.004-200.084zM723.868 599.984s82.132 12.764 122.132-19.608c0 0 14 36.444 0 68.032l65.868 9.844s12.836-120.336-9.848-176.192c0 0-90.184 106.676-180.096 78.312l1.944 39.612zM206.808 358.66S160.192 387.596 148.096 488.8l13.056 42.372L232.08 379.436l-25.272-20.776z" fill="#6E6E96" opacity=".2" /><path d="M125.852 520.108s-30.964 82.444-11.408 143.172h49.88l15.428-132.108-53.9-11.064zM114.444 679.3s-27.692 156.924 89.932 175.808c117.624 18.892 4.12 5.256 4.12 5.256S28.756 842.804 72 700c0 0 11.624-17.908 42.444-20.7zM433.228 45.884a250.58 250.58 0 0 0-66.044 20.732c2.708-0.56 5.404-1.196 8.168-1.584 159.648-22.596 239.156 66.68 260.504 194.596 0 0 9.724 81.356-227.632 122.808-96.132 16.788-145.56-18.752-176.144-36.56 16.428 21.028 71.12 95.98 239.252 67.924 244.348-40.772 263.856-142.352 263.856-142.352-24.752-148.276-159.932-249.268-301.96-225.564z" fill="#6E6E96" opacity=".2" /><path d="M805.764 413.04c10.932 20.436 6.796 43.956-9.244 52.54-16.036 8.584-21.256-6.432-32.196-26.868-10.936-20.436-23.436-38.552-7.4-47.132 16.04-8.584 37.904 1.024 48.84 21.46z" fill="#FFFFFF" opacity=".2" /><path d="M561.14 980.452c6.196-12.936 20.356-19.04 31.632-13.64 11.28 5.4 5.548 13.428-0.644 26.364s-10.504 25.88-21.784 20.476-15.4-20.268-9.204-33.2zM279.78 980.452c6.196-12.936 20.356-19.04 31.636-13.64 11.276 5.4 5.544 13.428-0.648 26.364-6.192 12.932-10.504 25.88-21.784 20.476-11.276-5.404-15.4-20.268-9.204-33.2z" fill="#FFFFFF" opacity=".3" /><path d="M317.852 498s-85.772 114.972-40.928 220.208c0 0-100.94-74.372-15.86-236.152l56.788 15.944z" fill="#CBCED8" /><path d="M268 563.696h280v199.168H268z" fill="#FDDFB1" /><path d="M548 780.864H268a18 18 0 0 1-18-18v-199.168c0-9.936 8.06-18 18-18h280c9.936 0 18 8.064 18 18v199.168c0 9.94-8.064 18-18 18z m-262-36h244v-163.168h-244v163.168z" fill="#6E6E96" /><path d="M286 581.696h249V622H286z" fill="#BC842C" opacity=".2" /><path d="M320 622h36v83.116h-36zM465.632 622h36v83.116h-36zM394 622h36v81.084h-36z" fill="#6E6E96" opacity=".5" /></svg>