<svg width="24" height="24" viewBox="0 0 24 24" fill="none" xmlns="http://www.w3.org/2000/svg">
<path d="M23.946 1.029C24.0005 0.892703 24.0139 0.743393 23.9844 0.599578C23.9549 0.455764 23.8838 0.32377 23.78 0.21996C23.6762 0.11615 23.5442 0.0450901 23.4004 0.015589C23.2566 -0.0139122 23.1073 -0.000556974 22.971 0.053999L1.15047 8.7825C0.958308 8.85942 0.791089 8.98787 0.667221 9.1537C0.543353 9.31953 0.467637 9.51633 0.448408 9.72242C0.429179 9.92851 0.467181 10.1359 0.558233 10.3218C0.649285 10.5077 0.789855 10.6649 0.964474 10.776L8.45697 15.543L10.7535 19.152C10.8619 19.3158 11.0303 19.4304 11.2224 19.4714C11.4145 19.5123 11.615 19.4763 11.7808 19.371C11.9466 19.2657 12.0645 19.0995 12.1091 18.9082C12.1538 18.717 12.1216 18.5158 12.0195 18.348L9.95547 15.105L21.1965 3.864L18.354 10.971C18.3149 11.0628 18.2946 11.1616 18.2942 11.2614C18.2938 11.3612 18.3133 11.46 18.3516 11.5522C18.3899 11.6444 18.4462 11.728 18.5172 11.7981C18.5882 11.8682 18.6725 11.9235 18.7651 11.9606C18.8577 11.9978 18.9569 12.016 19.0567 12.0144C19.1564 12.0127 19.2549 11.9911 19.3463 11.9509C19.4376 11.9107 19.52 11.8527 19.5886 11.7803C19.6573 11.7078 19.7108 11.6224 19.746 11.529L23.946 1.029ZM20.136 2.8035L8.89497 14.0445L2.38647 9.903L20.136 2.8035Z" fill="white"/>
<path d="M24 18.75C24 20.1424 23.4469 21.4777 22.4623 22.4623C21.4777 23.4469 20.1424 24 18.75 24C17.3576 24 16.0223 23.4469 15.0377 22.4623C14.0531 21.4777 13.5 20.1424 13.5 18.75C13.5 17.3576 14.0531 16.0223 15.0377 15.0377C16.0223 14.0531 17.3576 13.5 18.75 13.5C20.1424 13.5 21.4777 14.0531 22.4623 15.0377C23.4469 16.0223 24 17.3576 24 18.75ZM21.0105 16.2315C20.926 16.1809 20.8323 16.1474 20.7349 16.1329C20.6374 16.1185 20.5381 16.1234 20.4426 16.1473C20.347 16.1713 20.2571 16.2138 20.178 16.2726C20.0989 16.3313 20.0321 16.405 19.9815 16.4895L18.2265 19.4145L17.406 18.594C17.2652 18.4532 17.0742 18.3741 16.875 18.3741C16.6758 18.3741 16.4848 18.4532 16.344 18.594C16.2032 18.7348 16.1241 18.9258 16.1241 19.125C16.1241 19.3242 16.2032 19.5152 16.344 19.656L17.505 20.8155C17.6258 20.9366 17.7727 21.0285 17.9344 21.0843C18.0961 21.1401 18.2684 21.1582 18.4382 21.1374C18.608 21.1166 18.7708 21.0573 18.9143 20.9641C19.0577 20.8709 19.178 20.7462 19.266 20.5995L21.2685 17.2605C21.3191 17.176 21.3526 17.0823 21.3671 16.9849C21.3815 16.8874 21.3766 16.7881 21.3527 16.6926C21.3287 16.597 21.2862 16.5071 21.2274 16.428C21.1687 16.3489 21.095 16.2821 21.0105 16.2315Z" fill="white"/>
</svg>
