<svg width="24" height="24" viewBox="0 0 24 24" fill="none" xmlns="http://www.w3.org/2000/svg">
<g clip-path="url(#clip0_105_72)">
<path d="M23.781 0.219003C23.8849 0.323002 23.9559 0.455215 23.9852 0.599219C24.0145 0.743224 24.0009 0.892674 23.946 1.029L15.2175 22.8495C15.1406 23.0417 15.0122 23.2089 14.8463 23.3328C14.6805 23.4566 14.4837 23.5323 14.2776 23.5516C14.0715 23.5708 13.8641 23.5328 13.6782 23.4417C13.4923 23.3507 13.3352 23.2101 13.224 23.0355L8.45702 15.543L0.96452 10.776C0.789496 10.665 0.648547 10.5078 0.557224 10.3217C0.465902 10.1356 0.427756 9.92795 0.446997 9.72158C0.466238 9.51521 0.542117 9.31816 0.666261 9.15219C0.790405 8.98621 0.957989 8.85776 1.15052 8.781L22.971 0.0555034C23.1073 0.000621788 23.2568 -0.0129978 23.4008 0.0163365C23.5448 0.0456707 23.677 0.116666 23.781 0.220503V0.219003ZM9.95402 15.105L14.0955 21.612L21.195 3.864L9.95402 15.105ZM20.1345 2.8035L2.38652 9.903L8.89502 14.043L20.136 2.8035H20.1345Z" fill="white"/>
</g>
<defs>
<clipPath id="clip0_105_72">
<rect width="24" height="24" fill="white"/>
</clipPath>
</defs>
</svg>
