<svg class="svg-icon" style="width: 1em; height: 1em;vertical-align: middle;fill: currentColor;overflow: hidden;" viewBox="0 0 1024 1024" version="1.1" xmlns="http://www.w3.org/2000/svg"><path d="M512.361327 805.035992c-130.800282 0-237.030346-106.230064-237.030346-237.030346 0-72.988003 33.242061-140.917431 91.05434-186.444602 5.058574-3.613267 11.562456-2.890614 15.175723 2.167961s2.890614 11.562456-2.16796 15.175723c-52.753705 41.191249-82.382498 102.616796-82.382498 169.100918 0 118.515173 96.112915 215.350741 215.350741 215.350741s215.350741-96.112915 215.350741-215.350741c0-66.484121-30.351447-128.632322-82.382498-169.823571-5.058574-3.613267-5.781228-10.839802-2.167961-15.175724 3.613267-5.058574 10.839802-5.781228 15.175723-2.16796 57.812279 45.52717 91.05434 113.456598 91.054341 186.444601-0.722653 131.522936-106.952717 237.752999-237.030346 237.753z" fill="#0077F9" /><path d="M515.974594 494.294989h-7.226535c-24.570219 0-44.804517-20.234298-44.804516-44.804516v-137.304164c0-24.570219 20.234298-44.804517 44.804516-44.804516h7.226535c24.570219 0 44.804517 20.234298 44.804517 44.804516v137.304164c-0.722653 24.570219-20.234298 44.804517-44.804517 44.804516z m-7.226535-203.788285c-12.285109 0-22.402258 10.117149-22.402258 22.402259v137.304163c0 12.285109 10.117149 22.402258 22.402258 22.402259h7.226535c12.285109 0 22.402258-10.117149 22.402259-22.402259v-137.304163c0-12.285109-10.117149-22.402258-22.402259-22.402259h-7.226535z" fill="#0077F9" /><path d="M565.837685 742.165138c-7.949188 0-14.45307-5.058574-17.343684-12.28511-2.890614-9.394495 2.16796-19.511644 11.562456-23.124912 105.50741-33.964714 96.112915-139.472124 96.112915-143.808045-0.722653-10.117149 6.503881-18.788991 16.62103-19.511644 10.117149-0.722653 18.788991 6.503881 19.511645 16.62103 0 1.445307 11.562456 138.749471-120.683134 181.386027-2.16796 0-4.335921 0.722653-5.781228 0.722654z" fill="#99FFFF" /></svg>