<svg width="24" height="24" viewBox="0 0 24 24" fill="none" xmlns="http://www.w3.org/2000/svg">
<g clip-path="url(#clip0)">
<path d="M23 3.17533C22.868 0.674667 16.0553 0 12 0C7.94467 0 1 0.682 1 3.24133V19.8073C1 22.3667 7.91533 23.056 12 23.056C16.0847 23.056 23 22.374 23 19.8073V3.24133V3.17533ZM21.5333 8.71933C21.2913 9.35 17.8227 10.516 12 10.516C9.27653 10.5855 6.55787 10.2494 3.93333 9.51867V11.044C6.57099 11.7007 9.28203 12.0162 12 11.9827C14.9333 11.9827 19.282 11.6307 21.5333 10.516V14.3073C21.2913 14.938 17.8227 16.104 12 16.104C9.27506 16.164 6.55638 15.8179 3.93333 15.0773V16.6027C6.57099 17.2594 9.28203 17.5748 12 17.5413C14.9333 17.5413 19.282 17.1893 21.5333 16.0747V19.8147C21.2767 20.4453 17.808 21.6113 12 21.6113C6.192 21.6113 2.68667 20.416 2.46667 19.8073V3.27067C2.68667 2.66933 6.13333 1.46667 12 1.46667C17.698 1.46667 21.1373 2.58867 21.5333 3.20467C21.152 3.84267 17.7127 4.95733 12 4.95733C9.27661 5.02521 6.55819 4.68911 3.93333 3.96V5.49267C6.57161 6.14524 9.28243 6.45821 12 6.424C14.9333 6.424 19.282 6.072 21.5333 4.95733V8.71933Z" fill="white"/>
</g>
<defs>
<clipPath id="clip0">
<rect width="24" height="24" fill="white"/>
</clipPath>
</defs>
</svg>
