<svg width="24" height="24" viewBox="0 0 24 24" fill="none" xmlns="http://www.w3.org/2000/svg">
<path d="M1 3.22179C1 2.36732 1.33944 1.54784 1.94364 0.943641C2.54784 0.339438 3.36732 0 4.22179 0H17.6046C18.4591 0 19.2786 0.339438 19.8828 0.943641C20.487 1.54784 20.8264 2.36732 20.8264 3.22179V15.2455C20.7074 15.3248 20.5934 15.418 20.4884 15.5231L19.3394 16.672V3.22179C19.3394 2.76169 19.1566 2.32044 18.8313 1.9951C18.506 1.66975 18.0647 1.48698 17.6046 1.48698H4.22179C3.76169 1.48698 3.32043 1.66975 2.99509 1.9951C2.66975 2.32044 2.48698 2.76169 2.48698 3.22179V20.5699C2.48698 21.5275 3.26418 22.3047 4.22179 22.3047H12.2198L13.7067 23.7917H4.22179C3.36732 23.7917 2.54784 23.4523 1.94364 22.8481C1.33944 22.2438 1 21.4244 1 20.5699V3.22179Z" fill="white"/>
<path d="M7.44359 6.69141C7.44359 7.02005 7.31303 7.33524 7.08065 7.56762C6.84826 7.80001 6.53308 7.93056 6.20444 7.93056C5.87579 7.93056 5.56061 7.80001 5.32823 7.56762C5.09584 7.33524 4.96529 7.02005 4.96529 6.69141C4.96529 6.36277 5.09584 6.04758 5.32823 5.8152C5.56061 5.58281 5.87579 5.45226 6.20444 5.45226C6.53308 5.45226 6.84826 5.58281 7.08065 5.8152C7.31303 6.04758 7.44359 6.36277 7.44359 6.69141Z" fill="white"/>
<path d="M6.20444 13.135C6.53308 13.135 6.84826 13.0044 7.08065 12.7721C7.31303 12.5397 7.44359 12.2245 7.44359 11.8958C7.44359 11.5672 7.31303 11.252 7.08065 11.0196C6.84826 10.7872 6.53308 10.6567 6.20444 10.6567C5.87579 10.6567 5.56061 10.7872 5.32823 11.0196C5.09584 11.252 4.96529 11.5672 4.96529 11.8958C4.96529 12.2245 5.09584 12.5397 5.32823 12.7721C5.56061 13.0044 5.87579 13.135 6.20444 13.135V13.135Z" fill="white"/>
<path d="M6.20444 18.3394C6.53308 18.3394 6.84826 18.2089 7.08065 17.9765C7.31303 17.7441 7.44359 17.4289 7.44359 17.1003C7.44359 16.7716 7.31303 16.4564 7.08065 16.2241C6.84826 15.9917 6.53308 15.8611 6.20444 15.8611C5.87579 15.8611 5.56061 15.9917 5.32823 16.2241C5.09584 16.4564 4.96529 16.7716 4.96529 17.1003C4.96529 17.4289 5.09584 17.7441 5.32823 17.9765C5.56061 18.2089 5.87579 18.3394 6.20444 18.3394V18.3394Z" fill="white"/>
<path d="M9.67405 5.94792C9.47687 5.94792 9.28776 6.02625 9.14833 6.16569C9.0089 6.30512 8.93056 6.49423 8.93056 6.69141C8.93056 6.8886 9.0089 7.07771 9.14833 7.21714C9.28776 7.35657 9.47687 7.4349 9.67405 7.4349H16.1176C16.3148 7.4349 16.5039 7.35657 16.6434 7.21714C16.7828 7.07771 16.8611 6.8886 16.8611 6.69141C16.8611 6.49423 16.7828 6.30512 16.6434 6.16569C16.5039 6.02625 16.3148 5.94792 16.1176 5.94792H9.67405Z" fill="white"/>
<path d="M8.93056 11.8958C8.93056 11.6987 9.0089 11.5095 9.14833 11.3701C9.28776 11.2307 9.47687 11.1524 9.67405 11.1524H16.1176C16.3148 11.1524 16.5039 11.2307 16.6434 11.3701C16.7828 11.5095 16.8611 11.6987 16.8611 11.8958C16.8611 12.093 16.7828 12.2821 16.6434 12.4216C16.5039 12.561 16.3148 12.6393 16.1176 12.6393H9.67405C9.47687 12.6393 9.28776 12.561 9.14833 12.4216C9.0089 12.2821 8.93056 12.093 8.93056 11.8958V11.8958Z" fill="white"/>
<path d="M9.67405 16.3568C9.47687 16.3568 9.28776 16.4351 9.14833 16.5745C9.0089 16.714 8.93056 16.9031 8.93056 17.1003C8.93056 17.2975 9.0089 17.4866 9.14833 17.626C9.28776 17.7654 9.47687 17.8438 9.67405 17.8438H16.1176C16.3148 17.8438 16.5039 17.7654 16.6434 17.626C16.7828 17.4866 16.8611 17.2975 16.8611 17.1003C16.8611 16.9031 16.7828 16.714 16.6434 16.5745C16.5039 16.4351 16.3148 16.3568 16.1176 16.3568H9.67405Z" fill="white"/>
<path d="M22.591 17.6257L16.643 23.5736C16.5036 23.7128 16.3147 23.791 16.1176 23.791C15.9206 23.791 15.7316 23.7128 15.5922 23.5736L12.6203 20.6016C12.4889 20.4607 12.4174 20.2743 12.4208 20.0816C12.4242 19.889 12.5023 19.7053 12.6385 19.569C12.7747 19.4328 12.9585 19.3548 13.1511 19.3514C13.3437 19.348 13.5301 19.4195 13.6711 19.5508L16.1176 21.9964L21.5402 16.5739C21.6088 16.5029 21.6908 16.4463 21.7816 16.4074C21.8723 16.3685 21.9699 16.348 22.0686 16.3472C22.1673 16.3464 22.2652 16.3652 22.3566 16.4027C22.4479 16.4401 22.5309 16.4953 22.6007 16.5652C22.6704 16.635 22.7256 16.7181 22.763 16.8094C22.8003 16.9008 22.8191 16.9987 22.8182 17.0975C22.8173 17.1962 22.7967 17.2937 22.7577 17.3844C22.7187 17.4751 22.662 17.5571 22.591 17.6257V17.6257Z" fill="white"/>
</svg>
