<svg width="23" height="24" viewBox="0 0 23 24" fill="none" xmlns="http://www.w3.org/2000/svg">
<g clip-path="url(#clip0_105_66)">
<path d="M14.8816 18.5491L14.2655 19.1652C14.1852 19.2455 14.087 19.2857 13.9709 19.2857C13.8548 19.2857 13.7521 19.2455 13.6629 19.1652L11.145 16.6339L8.62714 19.1652C8.53785 19.2455 8.43517 19.2857 8.3191 19.2857C8.20303 19.2857 8.10481 19.2455 8.02446 19.1652L7.40839 18.5491C7.32803 18.4688 7.28785 18.3705 7.28785 18.2545C7.28785 18.1384 7.32803 18.0357 7.40839 17.9464L9.93964 15.4286L7.40839 12.9107C7.32803 12.8214 7.28785 12.7188 7.28785 12.6027C7.28785 12.4866 7.32803 12.3884 7.40839 12.308L8.02446 11.692C8.10481 11.6116 8.20303 11.5714 8.3191 11.5714C8.43517 11.5714 8.53785 11.6116 8.62714 11.692L11.145 14.2098L13.6629 11.692C13.7521 11.6116 13.8548 11.5714 13.9709 11.5714C14.087 11.5714 14.1852 11.6116 14.2655 11.692L14.8816 12.308C14.962 12.3884 15.0021 12.4866 15.0021 12.6027C15.0021 12.7188 14.962 12.8214 14.8816 12.9107L12.3637 15.4286L14.8816 17.9464C14.962 18.0357 15.0021 18.1384 15.0021 18.2545C15.0021 18.3705 14.962 18.4688 14.8816 18.5491ZM1.71642 22.2857H20.5736V8.57143H1.71642V22.2857ZM6.85928 6V2.14286C6.85928 2.01786 6.8191 1.91518 6.73874 1.83482C6.65839 1.75446 6.55571 1.71429 6.43071 1.71429H5.57357C5.44857 1.71429 5.34589 1.75446 5.26553 1.83482C5.18517 1.91518 5.14499 2.01786 5.14499 2.14286V6C5.14499 6.125 5.18517 6.22768 5.26553 6.30804C5.34589 6.38839 5.44857 6.42857 5.57357 6.42857H6.43071C6.55571 6.42857 6.65839 6.38839 6.73874 6.30804C6.8191 6.22768 6.85928 6.125 6.85928 6ZM17.145 6V2.14286C17.145 2.01786 17.1048 1.91518 17.0245 1.83482C16.9441 1.75446 16.8414 1.71429 16.7164 1.71429H15.8593C15.7343 1.71429 15.6316 1.75446 15.5512 1.83482C15.4709 1.91518 15.4307 2.01786 15.4307 2.14286V6C15.4307 6.125 15.4709 6.22768 15.5512 6.30804C15.6316 6.38839 15.7343 6.42857 15.8593 6.42857H16.7164C16.8414 6.42857 16.9441 6.38839 17.0245 6.30804C17.1048 6.22768 17.145 6.125 17.145 6ZM22.2879 5.14286V22.2857C22.2879 22.75 22.1182 23.1518 21.7789 23.4911C21.4396 23.8304 21.0379 24 20.5736 24H1.71642C1.25214 24 0.850351 23.8304 0.511065 23.4911C0.171779 23.1518 0.00213623 22.75 0.00213623 22.2857V5.14286C0.00213623 4.67857 0.171779 4.27679 0.511065 3.9375C0.850351 3.59821 1.25214 3.42857 1.71642 3.42857H3.43071V2.14286C3.43071 1.55357 3.64053 1.04911 4.06017 0.629464C4.47982 0.209821 4.98428 0 5.57357 0H6.43071C7.01999 0 7.52446 0.209821 7.9441 0.629464C8.36374 1.04911 8.57356 1.55357 8.57356 2.14286V3.42857H13.7164V2.14286C13.7164 1.55357 13.9262 1.04911 14.3459 0.629464C14.7655 0.209821 15.27 0 15.8593 0H16.7164C17.3057 0 17.8102 0.209821 18.2298 0.629464C18.6495 1.04911 18.8593 1.55357 18.8593 2.14286V3.42857H20.5736C21.0379 3.42857 21.4396 3.59821 21.7789 3.9375C22.1182 4.27679 22.2879 4.67857 22.2879 5.14286Z" fill="white"/>
</g>
<defs>
<clipPath id="clip0_105_66">
<rect width="22.29" height="24" fill="white"/>
</clipPath>
</defs>
</svg>
