<svg width="24" height="24" viewBox="0 0 24 24" fill="none" xmlns="http://www.w3.org/2000/svg">
<path d="M10.5 2.25C10.11 2.25 9.705 2.385 9.42 2.67C9.135 2.955 9 3.36 9 3.75V4.5H2.25V19.5H10.65C10.5525 19.02 10.5 18.5175 10.5 18H3.75V13.08C4.1925 13.335 4.7025 13.5 5.25 13.5H12.0075C12.4275 12.93 12.9375 12.42 13.5075 12H5.25C4.3575 12 3.75 11.3925 3.75 10.5V6H20.25V10.5C20.25 10.62 20.2425 10.7325 20.22 10.8375C20.76 11.0025 21.27 11.2275 21.75 11.505V4.5H15V3.75C15 3.36 14.865 2.955 14.58 2.67C14.295 2.385 13.89 2.25 13.5 2.25H10.5ZM10.5 3.75H13.5V4.5H10.5V3.75ZM6.75 9V11.25H8.25V9H6.75ZM15.75 9V10.845C16.2384 10.6924 16.7409 10.5893 17.25 10.5375V9H15.75Z" fill="white"/>
<path d="M17.994 12C14.682 12 12 14.688 12 18C12 21.312 14.682 24 17.994 24C21.312 24 24 21.312 24 18C24 14.688 21.312 12 17.994 12ZM18 22.8C15.348 22.8 13.2 20.652 13.2 18C13.2 15.348 15.348 13.2 18 13.2C20.652 13.2 22.8 15.348 22.8 18C22.8 20.652 20.652 22.8 18 22.8ZM18.3 15H17.4V18.6L20.55 20.49L21 19.752L18.3 18.15V15Z" fill="white"/>
</svg>
