<svg width="24" height="24" viewBox="0 0 24 24" fill="none" xmlns="http://www.w3.org/2000/svg">
<path d="M18.0934 22.6667H5.90669C5.65015 22.6606 5.39732 22.6041 5.16264 22.5003C4.92796 22.3965 4.71604 22.2474 4.53897 22.0617C4.36191 21.876 4.22318 21.6572 4.1307 21.4178C4.03822 21.1784 3.99382 20.9232 4.00002 20.6667V7.48667H5.33335V20.6667C5.32699 20.7481 5.33679 20.8301 5.3622 20.9077C5.38761 20.9854 5.42812 21.0573 5.4814 21.1192C5.53468 21.1812 5.59968 21.232 5.67267 21.2687C5.74566 21.3055 5.82519 21.3274 5.90669 21.3333H18.0934C18.1749 21.3274 18.2544 21.3055 18.3274 21.2687C18.4004 21.232 18.4654 21.1812 18.5186 21.1192C18.5719 21.0573 18.6124 20.9854 18.6378 20.9077C18.6632 20.8301 18.6731 20.7481 18.6667 20.6667V7.48667H20V20.6667C20.0062 20.9232 19.9618 21.1784 19.8693 21.4178C19.7769 21.6572 19.6381 21.876 19.4611 22.0617C19.284 22.2474 19.0721 22.3965 18.8374 22.5003C18.6027 22.6041 18.3499 22.6606 18.0934 22.6667Z" fill="white"/>
<path d="M20.52 6H3.33335C3.15654 6 2.98697 5.92976 2.86195 5.80474C2.73693 5.67971 2.66669 5.51015 2.66669 5.33333C2.66669 5.15652 2.73693 4.98695 2.86195 4.86193C2.98697 4.73691 3.15654 4.66667 3.33335 4.66667H20.52C20.6968 4.66667 20.8664 4.73691 20.9914 4.86193C21.1164 4.98695 21.1867 5.15652 21.1867 5.33333C21.1867 5.51015 21.1164 5.67971 20.9914 5.80474C20.8664 5.92976 20.6968 6 20.52 6Z" fill="white"/>
<path d="M14 8.66667H15.3333V18.6667H14V8.66667Z" fill="white"/>
<path d="M8.66669 8.66667H10V18.6667H8.66669V8.66667Z" fill="white"/>
<path d="M15.3334 3.90667H14.0667V2.66667H9.93335V3.90667H8.66669V2.66667C8.66626 2.3243 8.79755 1.99488 9.03335 1.74667C9.26916 1.49845 9.59141 1.35045 9.93335 1.33333H14.0667C14.4086 1.35045 14.7309 1.49845 14.9667 1.74667C15.2025 1.99488 15.3338 2.3243 15.3334 2.66667V3.90667Z" fill="white"/>
</svg>
