<svg width="24" height="24" viewBox="0 0 24 24" fill="none" xmlns="http://www.w3.org/2000/svg">
<path d="M6 2C3.525 2 1.5 4.025 1.5 6.5C1.5 8 2.25 9.35 3.375 10.1C1.35 11.15 0 13.175 0 15.5H1.5C1.5 13.025 3.525 11 6 11C8.475 11 10.5 13.025 10.5 15.5H12C12 13.1 13.95 11.075 16.35 11H16.5C18.375 11 19.95 9.875 20.625 8.3C20.625 8.3 20.625 8.225 20.7 8.225C20.775 8.15 20.775 8 20.775 7.925C20.775 7.85 20.775 7.85 20.85 7.775C20.85 7.7 20.925 7.55 20.925 7.475C20.925 7.4 20.925 7.325 21 7.25C21 7.175 21 7.1 21.075 7.025V6.575C21.075 4.1 19.05 2.075 16.575 2.075C14.1 2.075 12.075 4.1 12.075 6.575C12.075 8.075 12.825 9.425 13.95 10.175C12.825 10.7 11.925 11.6 11.325 12.65C10.725 11.6 9.825 10.7 8.7 10.175C9.75 9.35 10.5 8 10.5 6.5C10.5 4.025 8.475 2 6 2ZM6 3.5C7.65 3.5 9 4.85 9 6.5C9 8.15 7.65 9.5 6 9.5C4.35 9.5 3 8.15 3 6.5C3 4.85 4.35 3.5 6 3.5ZM16.5 3.5C18.15 3.5 19.5 4.85 19.5 6.5C19.5 8.15 18.15 9.5 16.5 9.5C14.85 9.5 13.5 8.15 13.5 6.5C13.5 4.85 14.85 3.5 16.5 3.5ZM18.075 11.75V13.325C17.625 13.4 17.175 13.625 16.8 13.85L15.675 12.725L14.625 13.775L15.75 14.9C15.45 15.275 15.3 15.725 15.225 16.25H13.5V17.75H15.075C15.15 18.2 15.375 18.65 15.6 19.1L14.475 20.225L15.525 21.275L16.65 20.15C17.025 20.375 17.475 20.6 17.925 20.675V22.25H19.425V20.675C19.875 20.6 20.325 20.375 20.7 20.15L21.825 21.275L22.875 20.225L21.75 19.1C22.05 18.725 22.2 18.275 22.275 17.75H24V16.25H22.425C22.35 15.8 22.125 15.35 21.9 14.9L23.025 13.775L21.975 12.725L20.85 13.85C20.475 13.625 20.025 13.4 19.575 13.325V11.75H18.075ZM18.75 14.75C20.025 14.75 21 15.725 21 17C21 18.275 20.025 19.25 18.75 19.25C17.475 19.25 16.5 18.275 16.5 17C16.5 15.725 17.475 14.75 18.75 14.75ZM18.75 16.25C18.6546 16.2512 18.5607 16.2732 18.4747 16.3145C18.3855 16.3569 18.3043 16.4145 18.2347 16.4847C18.1645 16.5543 18.1069 16.6355 18.0645 16.7247C18.0232 16.8107 18.0012 16.9046 18 17C18 17.0938 18.0233 17.1875 18.0645 17.2753C18.1058 17.363 18.1642 17.4455 18.2347 17.5153C18.3045 17.5858 18.387 17.6442 18.4747 17.6855C18.5607 17.7268 18.6546 17.7488 18.75 17.75C19.125 17.75 19.5 17.375 19.5 17C19.5 16.625 19.125 16.25 18.75 16.25Z" fill="white"/>
</svg>
