<svg class="svg-icon" style="width: 1em;height: 1em;vertical-align: middle;fill: currentColor;overflow: hidden;" viewBox="0 0 1024 1024" version="1.1" xmlns="http://www.w3.org/2000/svg"><path d="M895.681059 1013.591538v-62.531397c0-22.46567-16.57211-83.513599-65.744234-102.282693-73.157542-36.933513-150.70502-36.26434-202.928734-103.673445-21.268415-7.231906-33.555399 9.263612-56.021069 9.263612l-122.410289 0.004031c-22.461639 0-31.241512-18.519162-52.505895-11.283224-67.606631 86.557127-123.035119 63.377941-197.668067 101.540959C131.066228 879.84965 123.886727 928.598502 123.886727 951.064172v62.527366" fill="#FFFFFF" /><path d="M903.743385 1013.591538h-16.124652v-62.531397c0-18.361946-14.90724-77.325764-60.552096-94.752481l-0.757858-0.334587c-24.203101-12.218454-49.256778-20.345279-73.484066-28.202015-48.692415-15.790065-94.724263-30.721492-130.573394-75.677019-8.280008-2.108298-14.778243 0.435366-23.509741 3.849761-7.776113 3.039497-16.588235 6.486141-27.750525 6.486141l-122.410289 0.004031c-11.831463 0-20.587148-4.36978-27.62959-7.880923-7.497963-3.740919-12.665913-6.304739-20.127595-4.466529-45.245771 56.96033-85.706552 67.030175-128.509438 77.680507-22.2238 5.526724-45.205459 11.246944-70.238981 24.045886C144.127195 882.115164 131.949053 922.515477 131.949053 951.064172v62.527366h-16.124651v-62.527366c0-27.016853 10.243185-77.696631 78.841481-113.578011 26.746765-13.681766 50.643498-19.6237 73.750123-25.372139 42.298991-10.521335 78.825357-19.611607 121.297688-73.987962l1.479437-1.894646 2.277607-0.773983c15.044299-5.123608 25.472918 0.084654 34.672031 4.668086 6.3773 3.180587 12.399857 6.183804 20.429933 6.183804l122.410289-0.004031c8.122793 0 14.80243-2.612193 21.87712-5.381603 10.22706-3.994882 21.820684-8.521878 36.740018-3.450675l2.293731 0.778014 1.483468 1.918834c33.027317 42.629546 77.41445 57.024829 124.409746 72.266655 24.686841 8.005889 50.216195 16.285898 75.410962 28.963905 52.76389 20.421871 70.537286 83.807874 70.537286 109.663752v62.527366z" fill="#6E6E96" /><path d="M263.933353 465.56302l-15.898906-9.18702c-8.743592-5.055078-17.587963-27.488499-19.651918-49.865483L223.63785 355.105129c-2.067987-22.372953 6.151554-38.380701 18.26923-35.566949l22.026273 5.107483" fill="#FFEAD6" /><path d="M259.898159 472.544994l-15.898906-9.18702c-12.673976-7.328654-21.643313-34.373725-23.646801-56.105723l-4.744678-51.405388c-1.624559-17.563776 2.434822-32.438767 10.859952-39.791608 4.8898-4.269001 11.017168-5.82503 17.261439-4.36978l22.022243 5.107483-3.64014 15.70541-22.026274-5.107483c-1.019884-0.233807-1.878522-0.181402-3.019341 0.814295-3.486956 3.043528-6.663512 12.524823-5.401758 26.158215l4.744679 51.405388c2.055893 22.29233 10.646301 40.730869 15.657036 43.625243l15.898906 9.18702-8.066357 13.963948z" fill="#6E6E96" /><path d="M263.933353 465.56302l-15.898906-9.18702c-8.743592-5.055078-17.587963-27.488499-19.651918-49.865483L223.63785 355.105129c-2.067987-22.372953 6.151554-38.380701 18.26923-35.566949l22.026273 5.107483" fill="#FFEAD6" /><path d="M259.898159 472.544994l-15.898906-9.18702c-12.673976-7.328654-21.643313-34.373725-23.646801-56.105723l-4.744678-51.405388c-1.624559-17.563776 2.434822-32.438767 10.859952-39.791608 4.8898-4.269001 11.017168-5.82503 17.261439-4.36978l22.022243 5.107483-3.64014 15.70541-22.026274-5.107483c-1.019884-0.233807-1.878522-0.181402-3.019341 0.814295-3.486956 3.043528-6.663512 12.524823-5.401758 26.158215l4.744679 51.405388c2.055893 22.29233 10.646301 40.730869 15.657036 43.625243l15.898906 9.18702-8.066357 13.963948z" fill="#6E6E96" /><path d="M611.826732 746.776936c0 44.93134-36.768236 81.699576-81.707638 81.699576H489.424505c-44.93134 0-81.699576-36.760173-81.699576-81.699576v-149.096587c0-44.93134 36.764205-81.703607 81.699576-81.703607h40.694589c44.93134 0 81.71167 36.756142 81.711669 81.703607l-0.004031 149.096587z" fill="#FFEAD6" /><path d="M530.119094 836.538837H489.424505c-49.494617 0-89.761902-40.263254-89.761901-89.761901v-149.096587c0-49.494617 40.267285-89.765933 89.761901-89.765932h40.694589c49.498648 0 89.773995 40.267285 89.773995 89.765932l-0.004031 149.096587c0 49.498648-40.267285 89.761902-89.769964 89.761901z m-40.694589-312.499769c-40.601871 0-73.63725 33.031348-73.63725 73.641281v149.096587c0 40.601871 33.035379 73.63725 73.63725 73.63725h40.694589c40.605903 0 73.645313-33.031348 73.645312-73.63725l0.004032-149.096587c0-40.605903-33.035379-73.641282-73.649344-73.641281H489.424505z" fill="#6E6E96" /><path d="M611.826732 765.481531c0 44.93134-36.768236 77.668413-81.707638 77.668413H489.424505c-44.93134 0-81.699576-32.724979-81.699576-77.668413v-167.805213c0-44.93134 36.764205-81.703607 81.699576-81.703607h40.694589c44.93134 0 81.71167 36.756142 81.711669 81.703607l-0.004031 167.805213z" fill="#FFEAD6" /><path d="M530.119094 851.208239H489.424505c-50.333098 0-89.761902-37.659123-89.761901-85.730739v-167.805213c0-49.494617 40.267285-89.765933 89.761901-89.765933h40.694589c49.498648 0 89.773995 40.267285 89.773995 89.765933l-0.004031 167.805213c0 48.075647-39.428803 85.730739-89.769964 85.730739z m-40.694589-327.173203c-40.601871 0-73.63725 33.031348-73.63725 73.641282v167.805213c0 39.682766 31.656721 69.606088 73.63725 69.606088h40.694589c41.98456 0 73.645313-29.923321 73.645312-69.606088l0.004032-167.805213c0-40.605903-33.035379-73.641282-73.649344-73.641282H489.424505z" fill="#6E6E96" /><path d="M611.826732 597.676318c0-0.786077-0.096748-1.56006-0.112873-2.338074H466.329974L407.724929 630.876975v115.89593c0 16.547923 5.022829 31.991308 13.576957 44.899091 11.573468-12.984375 38.146893-30.221627 97.638793-30.221628 47.507253 0 69.912456 15.915031 80.248358 28.677692 7.957515-12.593353 12.637695-27.444156 12.637695-43.355155v-149.096587z" fill="#D59758" opacity=".15" /><path d="M756.392292 465.56302s7.139189-4.135973 15.894874-9.18702c8.747623-5.055078 17.579901-27.488499 19.651919-49.865483L796.687795 355.105129c2.067987-22.372953-6.147523-38.380701-18.273261-35.566949l-22.022242 5.107483" fill="#FFEAD6" /><path d="M760.435548 472.540963l-8.086513-13.951854 15.911-9.195083c4.998642-2.890344 13.585019-21.324851 15.653005-43.625243l4.74871-51.405388c1.257723-13.633393-1.922865-23.114687-5.40579-26.154184-1.148881-1.00376-2.003488-1.048102-3.019341-0.818326l-22.022242 5.107483-3.644171-15.70541 22.026273-5.107483c6.236209-1.447187 12.367607 0.10481 17.261439 4.373811 8.421099 7.34881 12.484511 22.2238 10.855922 39.791608l-4.74871 51.405388c-2.059924 22.280237-10.843828 48.70854-23.64277 56.101692l-15.886812 9.182989z" fill="#6E6E96" /><path d="M756.392292 465.56302s7.139189-4.135973 15.894874-9.18702c8.747623-5.055078 17.579901-27.488499 19.651919-49.865483L796.687795 355.105129c2.067987-22.372953-6.147523-38.380701-18.273261-35.566949l-22.022242 5.107483" fill="#FFEAD6" /><path d="M760.435548 472.540963l-8.086513-13.951854 15.911-9.195083c4.998642-2.890344 13.585019-21.324851 15.653005-43.625243l4.74871-51.405388c1.257723-13.633393-1.922865-23.114687-5.40579-26.154184-1.148881-1.00376-2.003488-1.048102-3.019341-0.818326l-22.022242 5.107483-3.644171-15.70541 22.026273-5.107483c6.236209-1.447187 12.367607 0.10481 17.261439 4.373811 8.421099 7.34881 12.484511 22.2238 10.855922 39.791608l-4.74871 51.405388c-2.059924 22.280237-10.843828 48.70854-23.64277 56.101692l-15.886812 9.182989z" fill="#6E6E96" /><path d="M755.618308 542.87266c0 25.513229-17.035694 58.455891-37.852618 73.213979l-131.500561 93.22467c-20.812893 14.758087-55.234992 18.664284-76.499376 18.664284-21.25229 0-55.67842-3.906197-76.491314-18.664284l-131.504592-93.22467c-20.816925-14.758087-37.844556-47.700749-37.844556-73.213979V170.244066c0-25.513229 20.873361-46.382559 46.38659-46.382558h398.911775c25.509198 0 46.38659 20.86933 46.38659 46.382558l0.008062 372.628594z" fill="#FFEAD6" /><path d="M509.765753 736.037918c-12.371639 0-54.787533-1.451219-81.155369-20.147751L297.105792 622.665496c-23.126781-16.394739-41.242826-51.445699-41.242827-79.792836V170.244066c0-30.020069 24.424815-54.444884 54.448916-54.444884h398.911775c30.020069 0 54.448916 24.424815 54.448916 54.444884l0.008062 372.632625c0 28.343105-18.120077 63.394066-41.250889 79.792836l-131.500561 93.224671c-26.367836 18.692502-68.787762 20.14372-81.163431 20.14372zM310.311881 131.923833c-21.131355 0-38.324265 17.188878-38.324265 38.320233v372.632625c0 22.884911 15.77394 53.400813 34.442255 66.635121l131.504592 93.22467c17.862082 12.669945 48.817381 17.180816 71.827259 17.180816 23.013908 0 53.973238-4.510871 71.83532-17.180816l131.504592-93.22467c18.672346-13.238339 34.450317-43.754241 34.450318-66.635121l-0.008063-372.632625c0-21.131355-17.192909-38.320233-38.324264-38.320233H310.311881z" fill="#6E6E96" /><path d="M450.132762 387.225434H361.725331a8.062326 8.062326 0 0 1 0-16.124651h88.407431a8.062326 8.062326 0 0 1 0 16.124651zM660.954513 387.225434h-88.411462a8.062326 8.062326 0 0 1 0-16.124651h88.411462a8.062326 8.062326 0 0 1 0 16.124651zM509.785909 611.745076c-41.125923 0-66.792336-19.418111-68.380615-20.651647a8.062326 8.062326 0 0 1 9.876349-12.746536c2.072018 1.588278 51.570665 38.425044 124.280749-0.717547a8.062326 8.062326 0 0 1 7.647115 14.193724c-27.702151 14.919333-52.554269 19.922006-73.423598 19.922006z" fill="#6E6E96" /><path d="M717.76569 567.720747l-131.500561 93.224671c-20.812893 14.758087-55.234992 18.664284-76.499376 18.664284-21.248259 0-55.67842-3.906197-76.495345-18.664284l-131.500561-93.224671c-37.844556-24.840025-37.844556-108.611619-37.844556-134.124847v109.284822c0 25.513229 17.027632 58.455891 37.844556 73.213979l131.500561 93.22467c20.816925 14.758087 55.239024 18.664284 76.495345 18.664284s55.682451-3.906197 76.499376-18.664284l131.500561-93.22467c20.816925-14.758087 37.848587-47.700749 37.848587-73.213979v-91.14459c0 25.501136 0 91.136528-37.848587 115.984615zM263.933353 342.882644s83.682908-26.202558 101.823141-137.059535c0 0 167.293255 66.514186 322.493022 28.21814 0 0 68.142776-6.27652 68.142776 90.58829 0 0 41.08158-40.198755 20.542805-102.681779s-445.443487-100.779069-445.443487-100.779069-67.558257 165.277674-67.558257 221.713953z" fill="#D59758" opacity=".15" /><path d="M241.90708 319.526086h22.026273c63.793151-24.795682 75.088469-156.929136 75.088469-156.929135C452.636114 221.790545 630.410392 214.336925 698.488669 214.336925c68.086339 0 57.89556 110.276489 57.89556 110.276489 76.253475-35.558887 48.962503-273.651454-163.451557-309.057157-212.410029-35.389578-257.147874 65.893387-257.147874 65.893387-77.660351-38.175112-100.250987 47.116231-100.250987 47.11623s-35.393609 83.731282 6.373269 190.960212z" fill="#E4BC96" /><path d="M756.38826 332.679771a8.066357 8.066357 0 0 1-8.030076-8.795998c0.056436-0.612737 5.284854-61.394609-19.651918-88.705737-7.844643-8.594439-17.729054-12.770724-30.217597-12.770723-6.087056 0-13.048874 0.060467-20.764519 0.124966-9.646573 0.084654-20.462182 0.17334-32.213022 0.17334-86.170136 0-209.422937-5.083296-299.77742-47.777341-4.498778 33.83758-22.123021 130.053374-78.873731 152.115927-0.931199 0.362805-1.922865 0.548238-2.922593 0.548238h-22.026273a8.070388 8.070388 0 0 1-7.514088-5.135701c-41.242826-105.882522-9.719133-188.597951-6.494203-196.519186 0.850575-2.962905 5.087327-16.644671 14.512186-30.398998 21.163605-30.878707 53.183131-39.912543 89.991678-24.481252C344.826697 51.659351 389.141269 0 508.886959 0c26.327524 0 55.05359 2.559788 85.380028 7.614866 135.31001 22.554356 196.091882 124.14772 207.024396 204.291268 3.688514 27.04104 2.015581 52.517989-4.837396 73.681593-7.300436 22.538231-19.974412 38.562103-36.655363 46.342247-1.088414 0.499864-2.25342 0.749796-3.410364 0.749797zM247.474116 311.463761h14.891115c57.258636-24.114416 68.517674-148.290354 68.622484-149.552108a8.054263 8.054263 0 0 1 11.758902-6.461954c87.964003 45.83029 214.917412 51.131269 302.76048 51.131269 11.698434 0 22.469701-0.092717 32.075962-0.17334 7.768051-0.06853 14.778243-0.124966 20.90561-0.124966 17.047787 0 31.225387 6.074962 42.149838 18.051547 20.901579 22.921192 24.287756 62.188748 24.372411 84.448829 17.886269-17.829833 25.924408-53.465312 20.296904-94.696045-10.19078-74.713571-67.038237-169.453959-193.701402-190.565158-29.447644-4.905925-57.278792-7.393153-82.723492-7.393153-133.895072 0-165.418765 67.904937-165.721102 68.590235a8.066357 8.066357 0 0 1-10.932513 3.982789c-32.281552-15.870688-58.109211-10.593896-76.2696 15.604631-8.965306 12.93197-12.597384 26.218683-12.633664 26.351711a8.880652 8.880652 0 0 1-0.362805 1.060196c-0.334587 0.769952-32.426673 79.53081 4.510872 179.745517z" fill="#6E6E96" /><path d="M227.294115 394.747584s7.377028 38.840253 36.639238 38.840253v31.983246c0-0.008062-36.639238-11.565406-36.639238-70.823499z" fill="#D59758" opacity=".15" /><path d="M265.948935 468.352585l-2.652506-0.870731c-1.551998-0.511958-38.021927-13.181902-38.021927-72.73427l3.994882-0.378929c0.072561 0.370867 7.425402 37.203601 34.659938 37.203601h2.015581v36.780329z m-35.796726-58.76226c4.365749 36.615052 24.436909 49.450274 31.765563 52.961417v-27.00476c-17.063912-1.011822-26.710485-14.77018-31.765563-25.956657z" fill="#6E6E96" opacity=".15" /><path d="M793.366117 394.747584s-7.377028 38.840253-36.64327 38.840253v31.983246c0-0.008062 36.64327-11.565406 36.64327-70.823499z" fill="#D59758" opacity=".15" /><path d="M754.715328 468.348554l-0.008062-36.780329h2.015581c27.238567 0 34.591408-36.828703 34.663969-37.203602l3.994882 0.37893c0 59.552368-36.46993 72.222312-38.021927 72.73427l-2.644443 0.870731z m4.0231-32.805603v27.00476c7.324623-3.511143 27.403845-16.346365 31.769594-52.961417-5.059109 11.190508-14.701651 24.948866-31.769594 25.956657z" fill="#6E6E96" opacity=".15" /><path d="M356.686377 781.299814l77.599884 155.171549 76.592093-81.631047 74.576511 81.631047 82.703336-153.329308-7.723708-4.607619-95.135442 50.103322H463.512191l-98.924734-54.065955z" fill="#D59758" opacity=".2" /><path d="M432.250524 950.423217L346.648782 779.256014l16.934915-14.419469 101.984387 55.738888h97.735542l97.368705-51.280422 18.241012 10.876077-91.761358 170.119101-76.354255-83.586161-78.547206 83.719189z m78.708453-107.446613l72.794737 79.675933 71.283052-132.157641-87.742289 46.209219H461.452267L367.812387 785.524472l68.513642 136.995036 74.632948-79.542904z" fill="#6E6E96" opacity=".2" /><path d="M634.836609 180.628342c-147.218065 29.983789-301.329418-41.319418-301.329417-41.319419-2.281638 104.810232-104.274088 139.405671-104.274088 139.405671a302.498455 302.498455 0 0 0 12.678007 40.811492h22.026273c63.793151-24.795682 75.088469-156.929136 75.088469-156.929135 113.614292 59.193594 291.384539 51.739974 359.466848 51.739974 68.09037 0 57.891529 110.28052 57.891528 110.28052 41.799127-58.697761 25.670445-173.972892-121.54762-143.989103z" fill="#A87846" opacity=".2" /><path d="M510.455082 876.532003m-36.280465 0a36.280465 36.280465 0 1 0 72.56093 0 36.280465 36.280465 0 1 0-72.56093 0Z" fill="#FF9999" /><path d="M510.455082 920.874794c-24.449002 0-44.342791-19.893788-44.342791-44.342791s19.893788-44.342791 44.342791-44.34279 44.342791 19.893788 44.34279 44.34279-19.893788 44.342791-44.34279 44.342791z m0-72.56093c-15.560288 0-28.218139 12.661882-28.21814 28.218139s12.657851 28.218139 28.21814 28.21814 28.218139-12.661882 28.218139-28.21814-12.657851-28.218139-28.218139-28.218139zM361.572147 115.295287a8.062326 8.062326 0 0 1-7.026317-4.095662c-8.77181-15.515946-22.18752-22.445514-22.320548-22.510013a8.062326 8.062326 0 0 1 7.127096-14.463812c0.725609 0.358773 17.894332 8.989493 29.229961 29.036466a8.066357 8.066357 0 0 1-7.010192 12.033021z" fill="#6E6E96" /><path d="M442.042218 908.354002l-81.409332-129.819566 44.745907-44.749938 105.616464 105.616465z" fill="#F0F0FF" /><path d="M442.042218 916.416328a8.062326 8.062326 0 0 1-6.832821-3.781231l-81.409332-129.819566a8.062326 8.062326 0 0 1 1.128726-9.98519l44.749938-44.753969c3.023372-3.023372 8.376756-3.023372 11.400128 0l105.616465 105.616464c3.144307 3.148338 3.144307 8.25179 0 11.400129l-68.95304 68.953039a8.04217 8.04217 0 0 1-5.700064 2.370324zM370.87607 779.69138l72.621398 115.807244L499.591098 839.400963l-94.212305-94.216337-34.502723 34.506754z" fill="#6E6E96" /><path d="M581.246331 910.764638l79.188162-132.230202-44.749938-44.749938-105.616465 105.616465z" fill="#F0F0FF" /><path d="M581.246331 918.826963a8.062326 8.062326 0 0 1-5.708126-2.370324L504.359964 845.092965a8.062326 8.062326 0 0 1 0.008062-11.392066l105.616465-105.616465a8.062326 8.062326 0 0 1 11.400128 0l44.749938 44.753969a8.062326 8.062326 0 0 1 1.217411 9.840068l-79.188161 132.230202a8.058294 8.058294 0 0 1-6.917476 3.91829z m-59.786175-79.417938l58.189835 58.330926 70.634034-117.955854-34.59947-34.603502-94.224399 94.22843z" fill="#6E6E96" /><path d="M364.587457 774.571803L444.364168 872.980549l65.703922-33.579586-68.025872 68.953039-81.409332-129.819566z" fill="#D59758" opacity=".15" /><path d="M440.623249 921.269848l-90.229517-143.888324 14.814524-14.850804 81.304522 100.29533 59.882923-30.608619 9.408734 12.843284-75.181186 76.209133z m-26.996697-73.407474l29.834635 47.575783 25.751068-26.10581-26.992666 13.79867-28.593037-35.268643z" fill="#6E6E96" opacity=".15" /><path d="M510.06809 839.400963l66.316659 38.618539 84.049744-99.485066-79.188162 132.230202z" fill="#D59758" opacity=".15" /><path d="M582.846703 923.785293l-78.486739-78.692328 9.767507-12.661883 60.467442 35.212207 79.683994-94.313084 13.073061 9.344235-84.505265 141.110853z m-23.412994-46.309998l20.216282 20.264656 22.81235-38.094489-24.283725 28.746222-18.744907-10.916389z" fill="#6E6E96" opacity=".15" /><path d="M475.521025 999.482468l8.667-97.969349h53.884553l16.729325 97.969349" fill="#FF9999" /><path d="M546.856482 1000.84097l-15.584476-91.265525H491.569084l-8.017983 90.616508-16.060152-1.41897 9.316017-105.32219h68.070215l17.874175 104.673173z" fill="#6E6E96" /><path d="M895.681059 1013.591538v-62.531397c0-22.46567-16.57211-83.513599-65.744234-102.282693-55.714701-28.133485-121.829801-39.053905-169.506363-70.247043l-143.674673 235.061133-1.830148 0.636923-149.443266-238.257844c-54.614193 47.958744-103.987875 36.389306-167.095729 68.666826C131.066228 879.84965 123.886727 928.598502 123.886727 951.064172v62.527366" fill="#7D7F91" /><path d="M514.929672 1022.290787c-2.712973 0-5.321135-1.374627-6.828789-3.781231l-144.533311-230.425295c-31.003673 24.674747-60.334413 31.975183-91.257463 39.674704-22.227832 5.530755-45.209491 11.255006-70.247042 24.057979C144.127195 882.119195 131.949053 922.515477 131.949053 951.064172v62.527366h-16.124651v-62.527366c0-27.016853 10.243185-77.696631 78.829388-113.569949 26.750796-13.681766 50.647529-19.631763 73.758185-25.384232 32.724979-8.14698 60.991493-15.18539 91.753296-42.198212a8.151011 8.151011 0 0 1 6.486141-1.922865 8.062326 8.062326 0 0 1 5.663784 3.696577l143.255431 228.385527 137.982671-225.749147a8.054263 8.054263 0 0 1 11.291287-2.543664c25.916345 16.955071 57.436007 27.718275 90.810004 39.114373 25.920377 8.848402 52.715516 18.003173 77.551509 30.495746 52.759858 20.421871 70.533255 83.807874 70.533255 109.663752v62.531397h-16.124651v-62.531397c0-18.361946-14.90724-77.325764-60.552096-94.752481a7.457651 7.457651 0 0 1-0.757858-0.334586c-23.937045-12.085426-50.333098-21.099106-75.858422-29.81448-31.47935-10.74708-61.358329-20.949953-87.379484-36.477992l-139.429858 228.115439a8.062326 8.062326 0 0 1-4.224659 3.410364l-1.830148 0.636924a7.897048 7.897048 0 0 1-2.652505 0.455521z" fill="#6E6E96" /><path d="M340.666537 794.199535v104.503864h46.168907v44.34279l128.102291 63.119947-149.443267-230.195519z" fill="#7D7F91" /><path d="M514.933703 1014.228461c-1.205318 0-2.42676-0.270088-3.559516-0.830419l-128.102291-63.119947a8.058294 8.058294 0 0 1-4.498778-7.231906v-36.280465h-38.106581a8.062326 8.062326 0 0 1-8.062326-8.062325v-104.503864a8.062326 8.062326 0 0 1 3.289429-6.498235l24.827931-18.224887a8.074419 8.074419 0 0 1 11.533157 2.11233l149.443267 230.195519a8.062326 8.062326 0 0 1-6.764292 12.444199z m-120.035934-76.197038l97.328395 47.954712-128.844025-198.458175-14.653277 10.755143v92.35797h38.106582a8.062326 8.062326 0 0 1 8.062325 8.062326v39.328024z" fill="#6E6E96" /><path d="M690.293315 794.199535v104.503864h-46.164876v44.34279l-128.110353 63.119947 144.416407-227.6317z" fill="#7D7F91" /><path d="M516.022117 1014.228461a8.062326 8.062326 0 0 1-6.812665-12.3797l144.416407-227.6317a8.082481 8.082481 0 0 1 10.549553-2.821814l29.858823 15.665098a8.062326 8.062326 0 0 1 4.317375 7.13919v104.503864a8.062326 8.062326 0 0 1-8.062326 8.062325h-38.10255v36.280465a8.062326 8.062326 0 0 1-4.498778 7.231906l-128.106322 63.119947a8.026045 8.026045 0 0 1-3.559517 0.830419z m147.242252-225.10416l-125.058763 197.119828 97.860508-48.216738v-39.328024a8.062326 8.062326 0 0 1 8.062325-8.062325h38.102551v-91.567863l-18.966621-9.944878z" fill="#6E6E96" /><path d="M340.666537 794.199535l19.966349 82.332468h43.677649v56.436279l111.707551 73.197854-129.182642-63.119947v-44.34279H340.666537z" fill="#3F3F3F" opacity=".2" /><path d="M688.983188 794.199535l-19.96635 82.332468h-43.68168v56.436279l-111.707551 73.197854 129.186673-63.119947v-44.34279h46.168908z" fill="#3F3F3F" opacity=".2" /><path d="M514.937735 1014.228461l1.830148-0.636923h-2.229233l0.399085 0.636923z m314.99909-165.451013c-51.554541-26.029218-111.97764-37.364848-158.501289-63.611749 21.893245 23.763705 44.173482 47.954712 75.185217 63.611749 49.164061 18.769094 65.748265 79.817023 65.748265 102.282693v62.531397h83.312041v-62.531397c0-22.46567-16.57211-83.509568-65.744234-102.282693z" opacity=".1" /><path d="M511.503184 1023.959688l-11.492845-18.430476h16.753512l1.019885 6.034651 3.595797-2.237296 0.399085 0.636924-3.853792 2.402573 1.495562 8.836309-7.917204 2.757315z m392.240201-2.305825H804.306692v-70.593722c0-18.361946-14.90724-77.325764-60.556127-94.752481l-0.757859-0.334587c-32.301707-16.306053-55.251117-41.218639-77.446699-65.304837l9.852162-12.524823c23.820141 13.439897 51.244141 22.816381 80.276576 32.741104 25.912314 8.856465 52.699391 18.019298 77.535384 30.511871 52.759858 20.425902 70.533255 83.811905 70.533256 109.663753v70.593722z m-83.312042-16.124651h67.18739v-54.469071c0-18.361946-14.90724-77.321733-60.556127-94.752481l-0.757858-0.334587c-23.941076-12.085426-50.329067-21.107168-75.846328-29.830604-14.31869-4.897863-28.883281-9.876349-43.0246-15.419198 12.637695 11.78712 26.424272 22.522106 42.468299 30.677149 52.76389 20.425902 70.529224 83.807874 70.529224 109.659721v54.469071z" fill="#6E6E96" opacity=".1" /></svg>