<svg width="40" height="40" viewBox="0 0 40 40" fill="none" xmlns="http://www.w3.org/2000/svg">
<circle cx="20" cy="20" r="20" fill="white"/>
<path d="M13.636 26.364C12.8003 25.5283 12.1373 24.5361 11.685 23.4442C11.2327 22.3522 10.9999 21.1819 10.9999 20C10.9999 18.8181 11.2327 17.6477 11.685 16.5558C12.1373 15.4639 12.8003 14.4717 13.636 13.636M26.364 13.636C27.1997 14.4717 27.8627 15.4639 28.315 16.5558C28.7673 17.6477 29.0001 18.8181 29.0001 20C29.0001 21.1819 28.7673 22.3522 28.315 23.4442C27.8627 24.5361 27.1997 25.5283 26.364 26.364M16.464 23.535C15.5266 22.5973 15.0001 21.3258 15.0001 20C15.0001 18.6742 15.5266 17.4026 16.464 16.465M23.536 16.465C24.4734 17.4026 24.9999 18.6742 24.9999 20C24.9999 21.3258 24.4734 22.5973 23.536 23.535M21 20C21 20.2652 20.8946 20.5196 20.7071 20.7071C20.5196 20.8946 20.2652 21 20 21C19.7348 21 19.4804 20.8946 19.2929 20.7071C19.1054 20.5196 19 20.2652 19 20C19 19.7348 19.1054 19.4804 19.2929 19.2929C19.4804 19.1053 19.7348 19 20 19C20.2652 19 20.5196 19.1053 20.7071 19.2929C20.8946 19.4804 21 19.7348 21 20V20Z" stroke="#0657B7" stroke-width="2" stroke-linecap="round" stroke-linejoin="round"/>
</svg>
