<svg width="40" height="40" viewBox="0 0 40 40" fill="none" xmlns="http://www.w3.org/2000/svg">
<circle cx="20" cy="20" r="20" fill="white"/>
<g clip-path="url(#clip0_420_462)">
<path d="M12.6351 23.4145L13.6741 21.2115C13.7022 21.1485 13.748 21.095 13.8058 21.0575C13.8637 21.02 13.9311 21 14.0001 21C14.0691 21 14.1365 21.02 14.1944 21.0575C14.2523 21.095 14.298 21.1485 14.3261 21.2115L15.3661 23.4145L17.6891 23.7705C17.9871 23.8155 18.1051 24.1995 17.8891 24.4195L16.2091 26.1325L16.6051 28.5535C16.6561 28.8645 16.3451 29.1015 16.0781 28.9545L14.0001 27.8115L11.9221 28.9545C11.6551 29.1015 11.3441 28.8645 11.3951 28.5545L11.7911 26.1325L10.1111 24.4195C9.8941 24.1995 10.0131 23.8155 10.3111 23.7695L12.6351 23.4145V23.4145ZM24.6351 23.4145L25.6741 21.2115C25.7022 21.1485 25.748 21.095 25.8058 21.0575C25.8637 21.02 25.9311 21 26.0001 21C26.0691 21 26.1365 21.02 26.1944 21.0575C26.2523 21.095 26.298 21.1485 26.3261 21.2115L27.3661 23.4145L29.6891 23.7705C29.9871 23.8155 30.1051 24.1995 29.8891 24.4195L28.2091 26.1325L28.6051 28.5535C28.6561 28.8645 28.3451 29.1015 28.0781 28.9545L26.0001 27.8115L23.9221 28.9545C23.6551 29.1015 23.3441 28.8645 23.3951 28.5545L23.7911 26.1325L22.1111 24.4195C21.8951 24.1995 22.0131 23.8155 22.3111 23.7695L24.6351 23.4145V23.4145ZM18.6351 14.4145L19.6741 12.2115C19.7022 12.1485 19.748 12.095 19.8058 12.0575C19.8637 12.02 19.9311 12 20.0001 12C20.0691 12 20.1365 12.02 20.1944 12.0575C20.2523 12.095 20.298 12.1485 20.3261 12.2115L21.3661 14.4145L23.6891 14.7705C23.9871 14.8155 24.1051 15.1995 23.8891 15.4195L22.2091 17.1325L22.6051 19.5535C22.6561 19.8645 22.3451 20.1015 22.0781 19.9545L20.0001 18.8115L17.9221 19.9545C17.6551 20.1015 17.3441 19.8645 17.3951 19.5545L17.7911 17.1325L16.1111 15.4195C15.8941 15.1995 16.0131 14.8155 16.3111 14.7695L18.6351 14.4145V14.4145Z" stroke="#0657B7" stroke-width="1.5" stroke-linecap="round" stroke-linejoin="round"/>
</g>
<defs>
<clipPath id="clip0_420_462">
<rect width="22" height="19" fill="white" transform="translate(9 11)"/>
</clipPath>
</defs>
</svg>
