<svg width="40" height="40" viewBox="0 0 40 40" fill="none" xmlns="http://www.w3.org/2000/svg">
<circle cx="20" cy="20" r="20" fill="white"/>
<g clip-path="url(#clip0_420_461)">
<path d="M29.1346 12.2174L28.9468 12.4051L28.7707 12.2065C26.6221 9.78239 23.4923 8.25 20 8.25C13.5099 8.25 8.25 13.5099 8.25 20C8.25 26.4901 13.5099 31.75 20 31.75C23.1504 31.75 26.0144 30.5051 28.1288 28.4823L26.363 26.7166C24.7032 28.2855 22.4636 29.25 20 29.25C14.8933 29.25 10.75 25.1116 10.75 20C10.75 14.8884 14.8933 10.75 20 10.75C22.8201 10.75 25.321 12.0279 27.0108 14.0162L27.1601 14.1919L26.9971 14.3549L24.602 16.75H31.75V9.60199L29.1346 12.2174Z" fill="#0657B7" stroke="white" stroke-width="0.5"/>
<path d="M17.3203 22.9844V24H13.3516V23.1406L15.1797 21.2188C15.3411 21.0339 15.4714 20.8685 15.5703 20.7227C15.6693 20.5742 15.7409 20.4401 15.7852 20.3203C15.832 20.2005 15.8555 20.0924 15.8555 19.9961C15.8555 19.832 15.8307 19.6953 15.7812 19.5859C15.7344 19.474 15.6641 19.3893 15.5703 19.332C15.4792 19.2747 15.3659 19.2461 15.2305 19.2461C15.0951 19.2461 14.9766 19.2852 14.875 19.3633C14.7734 19.4414 14.694 19.5482 14.6367 19.6836C14.582 19.819 14.5547 19.9714 14.5547 20.1406H13.2344C13.2344 19.7917 13.319 19.4727 13.4883 19.1836C13.6602 18.8945 13.8984 18.6641 14.2031 18.4922C14.5078 18.3177 14.8607 18.2305 15.2617 18.2305C15.681 18.2305 16.0326 18.2956 16.3164 18.4258C16.6003 18.556 16.8138 18.7448 16.957 18.9922C17.1029 19.237 17.1758 19.5326 17.1758 19.8789C17.1758 20.0768 17.1445 20.2669 17.082 20.4492C17.0195 20.6315 16.9297 20.8125 16.8125 20.9922C16.6953 21.1693 16.5521 21.3516 16.3828 21.5391C16.2161 21.7266 16.026 21.9258 15.8125 22.1367L15.0781 22.9844H17.3203ZM22.043 21.7773V22.793H17.9492L17.8711 21.9883L20.1562 18.3125H21.1953L20.0664 20.1602L19.1289 21.7773H22.043ZM21.4688 18.3125V24H20.1523V18.3125H21.4688ZM25.0508 18.3125L23.1055 24.4883H22.168L24.1133 18.3125H25.0508ZM29.8784 18.3125V19.0156L27.7534 24H26.3628L28.4917 19.3281H25.7769V18.3125H29.8784Z" fill="#0657B7"/>
<path d="M17.3203 22.9844H17.5703V22.7344H17.3203V22.9844ZM17.3203 24V24.25H17.5703V24H17.3203ZM13.3516 24H13.1016V24.25H13.3516V24ZM13.3516 23.1406L13.1704 22.9683L13.1016 23.0407V23.1406H13.3516ZM15.1797 21.2188L15.361 21.3912L15.368 21.3832L15.1797 21.2188ZM15.5703 20.7227L15.7772 20.863L15.7783 20.8613L15.5703 20.7227ZM15.7852 20.3203L15.5523 20.2292L15.5507 20.2336L15.7852 20.3203ZM15.7812 19.5859L15.5505 19.6825L15.5535 19.689L15.7812 19.5859ZM15.5703 19.332L15.4373 19.5437L15.4399 19.5454L15.5703 19.332ZM14.6367 19.6836L14.4064 19.5862L14.4049 19.59L14.6367 19.6836ZM14.5547 20.1406V20.3906H14.8047V20.1406H14.5547ZM13.2344 20.1406H12.9844V20.3906H13.2344V20.1406ZM13.4883 19.1836L13.2734 19.0558L13.2725 19.0573L13.4883 19.1836ZM14.2031 18.4922L14.326 18.7099L14.3274 18.7091L14.2031 18.4922ZM16.957 18.9922L16.7407 19.1175L16.7423 19.1201L16.957 18.9922ZM16.8125 20.9922L17.021 21.1302L17.0219 21.1288L16.8125 20.9922ZM16.3828 21.5391L16.1972 21.3715L16.196 21.373L16.3828 21.5391ZM15.8125 22.1367L15.6368 21.9589L15.6299 21.9657L15.6235 21.973L15.8125 22.1367ZM15.0781 22.9844L14.8892 22.8207L14.5308 23.2344H15.0781V22.9844ZM17.0703 22.9844V24H17.5703V22.9844H17.0703ZM17.3203 23.75H13.3516V24.25H17.3203V23.75ZM13.6016 24V23.1406H13.1016V24H13.6016ZM13.5327 23.3129L15.3608 21.3911L14.9985 21.0464L13.1704 22.9683L13.5327 23.3129ZM15.368 21.3832C15.5337 21.1934 15.6708 21.0198 15.7772 20.863L15.3634 20.5823C15.2719 20.7172 15.1485 20.8743 14.9914 21.0543L15.368 21.3832ZM15.7783 20.8613C15.8842 20.7025 15.9665 20.5507 16.0197 20.407L15.5507 20.2336C15.5152 20.3295 15.4544 20.4459 15.3623 20.584L15.7783 20.8613ZM16.018 20.4114C16.0726 20.2718 16.1055 20.1321 16.1055 19.9961H15.6055C15.6055 20.0528 15.5914 20.1293 15.5523 20.2292L16.018 20.4114ZM16.1055 19.9961C16.1055 19.8088 16.0775 19.6342 16.009 19.4829L15.5535 19.689C15.584 19.7564 15.6055 19.8553 15.6055 19.9961H16.1055ZM16.0119 19.4894C15.9469 19.3343 15.844 19.2063 15.7007 19.1187L15.4399 19.5454C15.4841 19.5724 15.5218 19.6137 15.5506 19.6825L16.0119 19.4894ZM15.7034 19.1204C15.5632 19.0323 15.4009 18.9961 15.2305 18.9961V19.4961C15.3309 19.4961 15.3951 19.5172 15.4373 19.5437L15.7034 19.1204ZM15.2305 18.9961C15.0433 18.9961 14.8704 19.0514 14.7226 19.1651L15.0274 19.5614C15.0827 19.5189 15.1468 19.4961 15.2305 19.4961V18.9961ZM14.7226 19.1651C14.582 19.2732 14.4781 19.417 14.4065 19.5862L14.867 19.781C14.91 19.6794 14.9648 19.6096 15.0274 19.5614L14.7226 19.1651ZM14.4049 19.59C14.3365 19.7595 14.3047 19.9443 14.3047 20.1406H14.8047C14.8047 19.9984 14.8276 19.8785 14.8685 19.7772L14.4049 19.59ZM14.5547 19.8906H13.2344V20.3906H14.5547V19.8906ZM13.4844 20.1406C13.4844 19.8341 13.5581 19.559 13.704 19.3099L13.2725 19.0573C13.0799 19.3863 12.9844 19.7492 12.9844 20.1406H13.4844ZM13.7032 19.3114C13.8518 19.0614 14.0577 18.8613 14.326 18.7099L14.0803 18.2744C13.7392 18.4669 13.4685 18.7277 13.2734 19.0558L13.7032 19.3114ZM14.3274 18.7091C14.5891 18.5592 14.898 18.4805 15.2617 18.4805V17.9805C14.8234 17.9805 14.4265 18.0762 14.0789 18.2752L14.3274 18.7091ZM15.2617 18.4805C15.6567 18.4805 15.9702 18.542 16.2122 18.653L16.4206 18.1985C16.0949 18.0491 15.7053 17.9805 15.2617 17.9805V18.4805ZM16.2122 18.653C16.4536 18.7637 16.6258 18.919 16.7407 19.1174L17.1734 18.8669C17.0018 18.5706 16.747 18.3482 16.4206 18.1985L16.2122 18.653ZM16.7423 19.1201C16.8605 19.3187 16.9258 19.5679 16.9258 19.8789H17.4258C17.4258 19.4972 17.3452 19.1553 17.1718 18.8642L16.7423 19.1201ZM16.9258 19.8789C16.9258 20.05 16.8989 20.2126 16.8455 20.3681L17.3185 20.5303C17.3902 20.3212 17.4258 20.1037 17.4258 19.8789H16.9258ZM16.8455 20.3681C16.7905 20.5288 16.7103 20.6913 16.6031 20.8556L17.0219 21.1288C17.1491 20.9337 17.2486 20.7342 17.3185 20.5303L16.8455 20.3681ZM16.604 20.8542C16.4949 21.0192 16.3597 21.1916 16.1972 21.3715L16.5684 21.7066C16.7445 21.5115 16.8958 21.3194 17.021 21.1302L16.604 20.8542ZM16.196 21.373C16.0335 21.5557 15.8472 21.751 15.6368 21.9589L15.9882 22.3146C16.2049 22.1005 16.3988 21.8974 16.5697 21.7052L16.196 21.373ZM15.6235 21.973L14.8892 22.8207L15.2671 23.1481L16.0015 22.3004L15.6235 21.973ZM15.0781 23.2344H17.3203V22.7344H15.0781V23.2344ZM22.043 21.7773H22.293V21.5273H22.043V21.7773ZM22.043 22.793V23.043H22.293V22.793H22.043ZM17.9492 22.793L17.7004 22.8171L17.7223 23.043H17.9492V22.793ZM17.8711 21.9883L17.6588 21.8563L17.6141 21.9282L17.6223 22.0124L17.8711 21.9883ZM20.1562 18.3125V18.0625H20.0173L19.9439 18.1805L20.1562 18.3125ZM21.1953 18.3125L21.4086 18.4428L21.641 18.0625H21.1953V18.3125ZM20.0664 20.1602L19.853 20.0298L19.8501 20.0348L20.0664 20.1602ZM19.1289 21.7773L18.9126 21.652L18.695 22.0273H19.1289V21.7773ZM21.4688 18.3125H21.7188V18.0625H21.4688V18.3125ZM21.4688 24V24.25H21.7188V24H21.4688ZM20.1523 24H19.9023V24.25H20.1523V24ZM20.1523 18.3125V18.0625H19.9023V18.3125H20.1523ZM21.793 21.7773V22.793H22.293V21.7773H21.793ZM22.043 22.543H17.9492V23.043H22.043V22.543ZM18.198 22.7688L18.1199 21.9641L17.6223 22.0124L17.7004 22.8171L18.198 22.7688ZM18.0834 22.1203L20.3686 18.4445L19.9439 18.1805L17.6588 21.8563L18.0834 22.1203ZM20.1562 18.5625H21.1953V18.0625H20.1562V18.5625ZM20.982 18.1822L19.8531 20.0298L20.2797 20.2905L21.4086 18.4428L20.982 18.1822ZM19.8501 20.0348L18.9126 21.652L19.3452 21.9027L20.2827 20.2855L19.8501 20.0348ZM19.1289 22.0273H22.043V21.5273H19.1289V22.0273ZM21.2188 18.3125V24H21.7188V18.3125H21.2188ZM21.4688 23.75H20.1523V24.25H21.4688V23.75ZM20.4023 24V18.3125H19.9023V24H20.4023ZM20.1523 18.5625H21.4688V18.0625H20.1523V18.5625ZM25.0508 18.3125L25.2892 18.3876L25.3916 18.0625H25.0508V18.3125ZM23.1055 24.4883V24.7383H23.2888L23.3439 24.5634L23.1055 24.4883ZM22.168 24.4883L21.9295 24.4132L21.8271 24.7383H22.168V24.4883ZM24.1133 18.3125V18.0625H23.9299L23.8748 18.2374L24.1133 18.3125ZM24.8123 18.2374L22.867 24.4132L23.3439 24.5634L25.2892 18.3876L24.8123 18.2374ZM23.1055 24.2383H22.168V24.7383H23.1055V24.2383ZM22.4064 24.5634L24.3517 18.3876L23.8748 18.2374L21.9295 24.4132L22.4064 24.5634ZM24.1133 18.5625H25.0508V18.0625H24.1133V18.5625ZM29.8784 18.3125H30.1284V18.0625H29.8784V18.3125ZM29.8784 19.0156L30.1084 19.1137L30.1284 19.0667V19.0156H29.8784ZM27.7534 24V24.25H27.9186L27.9834 24.098L27.7534 24ZM26.3628 24L26.1353 23.8963L25.9742 24.25H26.3628V24ZM28.4917 19.3281L28.7192 19.4318L28.8804 19.0781H28.4917V19.3281ZM25.7769 19.3281H25.5269V19.5781H25.7769V19.3281ZM25.7769 18.3125V18.0625H25.5269V18.3125H25.7769ZM29.6284 18.3125V19.0156H30.1284V18.3125H29.6284ZM29.6485 18.9176L27.5235 23.902L27.9834 24.098L30.1084 19.1137L29.6485 18.9176ZM27.7534 23.75H26.3628V24.25H27.7534V23.75ZM26.5903 24.1037L28.7192 19.4318L28.2642 19.2245L26.1353 23.8963L26.5903 24.1037ZM28.4917 19.0781H25.7769V19.5781H28.4917V19.0781ZM26.0269 19.3281V18.3125H25.5269V19.3281H26.0269ZM25.7769 18.5625H29.8784V18.0625H25.7769V18.5625Z" fill="#0657B7"/>
</g>
<defs>
<clipPath id="clip0_420_461">
<rect width="24" height="24" fill="white" transform="matrix(-1 0 0 1 32 8)"/>
</clipPath>
</defs>
</svg>
